<?xml version="1.0" encoding="UTF-8" standalone="no"?>
<!-- Created with Inkscape (http://www.inkscape.org/) -->

<svg
   width="32mm"
   height="32mm"
   viewBox="0 0 32.000001 31.999998"
   version="1.1"
   id="svg2363"
   inkscape:version="1.2.2 (732a01da63, 2022-12-09)"
   sodipodi:docname="letter_z.svg"
   xmlns:inkscape="http://www.inkscape.org/namespaces/inkscape"
   xmlns:sodipodi="http://sodipodi.sourceforge.net/DTD/sodipodi-0.dtd"
   xmlns="http://www.w3.org/2000/svg"
   xmlns:svg="http://www.w3.org/2000/svg">
  <sodipodi:namedview
     id="namedview2365"
     pagecolor="#ffffff"
     bordercolor="#666666"
     borderopacity="1.0"
     inkscape:showpageshadow="2"
     inkscape:pageopacity="0.0"
     inkscape:pagecheckerboard="0"
     inkscape:deskcolor="#d1d1d1"
     inkscape:document-units="mm"
     showgrid="false"
     inkscape:zoom="0.86858165"
     inkscape:cx="-335.6046"
     inkscape:cy="355.75239"
     inkscape:window-width="1920"
     inkscape:window-height="1129"
     inkscape:window-x="1912"
     inkscape:window-y="-8"
     inkscape:window-maximized="1"
     inkscape:current-layer="layer1" />
  <defs
     id="defs2360" />
  <g
     inkscape:label="Layer 1"
     inkscape:groupmode="layer"
     id="layer1"
     transform="translate(-52.950918,-54.612073)">
    <path
       style="font-variation-settings:normal;vector-effect:none;fill:#000000;fill-opacity:1;stroke-width:0.653635;stroke-linecap:butt;stroke-linejoin:miter;stroke-miterlimit:4;stroke-dasharray:none;stroke-dashoffset:0;stroke-opacity:1;-inkscape-stroke:none;stop-color:#000000"
       d="m 67.962509,82.801538 c -2.870252,-1.928936 -5.821163,-4.616647 -5.821163,-5.301946 0,-1.31361 2.805353,-1.603523 3.698391,-0.382206 0.471162,0.644336 1.665593,1.702177 2.654287,2.350756 l 1.797637,1.179235 2.461197,-2.403307 c 2.812295,-2.74612 2.979667,-3.789958 1.153941,-7.196369 -0.718996,-1.341496 -1.307256,-3.345998 -1.307256,-4.454448 0,-3.11904 1.8488,-8.606118 3.055781,-9.069283 1.956808,-0.750887 2.374633,0.644099 1.227437,4.097952 -1.253105,3.772729 -0.691723,7.174253 1.682095,10.192064 1.363211,1.733039 1.366448,1.803436 0.201588,4.386749 -1.292187,2.865533 -6.374863,7.75155 -8.05639,7.744665 -0.578502,-0.0024 -1.814881,-0.517107 -2.747495,-1.143862 z m -8.684572,-8.84537 c -1.060286,-0.775299 -0.968855,-0.973201 1.144183,-2.476654 2.280954,-1.622924 6.294696,-6.198174 6.294696,-7.175313 0,-0.280664 0.178613,-0.975561 0.396752,-1.544213 0.322961,-0.84167 -0.113887,-1.033912 -2.34894,-1.033912 -2.18053,0 -2.814864,0.264611 -3.081869,1.285622 -0.335041,1.281257 -2.563918,2.44611 -3.290399,1.719636 -0.495051,-0.495055 0.848718,-4.979199 1.938922,-6.470134 0.725271,-0.99187 1.145195,-1.046492 3.020281,-0.392839 1.695905,0.591203 2.747496,0.571207 4.752082,-0.09037 3.660767,-1.208162 4.140155,-0.39062 2.524514,4.305299 -1.535425,4.462831 -3.841059,8.022648 -6.982663,10.781001 -2.496154,2.191655 -2.769928,2.260096 -4.367559,1.091871 z"
       id="path1720" />
  </g>
</svg>
