<?xml version="1.0" encoding="UTF-8" standalone="no"?>
<!-- Created with Inkscape (http://www.inkscape.org/) -->

<svg
   width="32mm"
   height="32mm"
   viewBox="0 0 32 32"
   version="1.1"
   id="svg3287"
   inkscape:version="1.2.2 (732a01da63, 2022-12-09)"
   sodipodi:docname="letter_e.svg"
   xmlns:inkscape="http://www.inkscape.org/namespaces/inkscape"
   xmlns:sodipodi="http://sodipodi.sourceforge.net/DTD/sodipodi-0.dtd"
   xmlns="http://www.w3.org/2000/svg"
   xmlns:svg="http://www.w3.org/2000/svg">
  <sodipodi:namedview
     id="namedview3289"
     pagecolor="#ffffff"
     bordercolor="#666666"
     borderopacity="1.0"
     inkscape:showpageshadow="2"
     inkscape:pageopacity="0.0"
     inkscape:pagecheckerboard="0"
     inkscape:deskcolor="#d1d1d1"
     inkscape:document-units="mm"
     showgrid="false"
     inkscape:zoom="0.84541947"
     inkscape:cx="-390.9302"
     inkscape:cy="345.39067"
     inkscape:window-width="1920"
     inkscape:window-height="1129"
     inkscape:window-x="1912"
     inkscape:window-y="-8"
     inkscape:window-maximized="1"
     inkscape:current-layer="layer1" />
  <defs
     id="defs3284" />
  <g
     inkscape:label="Layer 1"
     inkscape:groupmode="layer"
     id="layer1"
     transform="translate(-67.102729,-61.558018)">
    <path
       style="fill:#000000;stroke-width:0.651405"
       d="m 77.742264,90.431873 c -0.415338,-0.264276 -0.808939,-1.798734 -0.874667,-3.409905 -0.176994,-4.338515 -0.114213,-4.557921 1.304124,-4.557921 0.93058,0 1.302813,0.434271 1.302813,1.519946 0,2.077734 0.511474,2.424315 2.34491,1.588944 1.286819,-0.586312 1.563524,-1.193442 1.563524,-3.430586 0,-1.495008 -0.174261,-2.892465 -0.387261,-3.105458 -0.212988,-0.212988 -1.312239,0.176747 -2.44277,0.866106 -5.061399,3.086233 -10.602043,-0.31083 -9.255754,-5.674867 0.719694,-2.867488 4.145324,-10.003447 4.802175,-10.003447 0.904486,0 4.577947,3.855824 6.434339,6.75376 l 1.614046,2.519621 2.413551,-2.356769 c 2.829653,-2.763083 3.30221,-2.844107 5.14531,-0.882218 3.255589,3.465416 4.398351,10.512819 2.457798,15.157216 -1.001542,2.397028 -1.730677,2.768634 -2.831002,1.442824 -0.476196,-0.573781 -0.41001,-1.29925 0.222861,-2.44277 1.300363,-2.349608 1.145783,-6.173195 -0.369663,-9.143715 -0.723827,-1.41882 -1.548382,-2.579673 -1.832345,-2.579673 -0.283963,0 -1.289978,0.807553 -2.235592,1.794559 -1.684709,1.758458 -1.704546,1.880682 -0.985997,6.075541 0.403316,2.354537 0.553314,4.750021 0.333326,5.323295 -0.21998,0.573275 -1.698663,1.616789 -3.285948,2.318921 -1.587287,0.702132 -3.08767,1.602953 -3.334186,2.001825 -0.519198,0.840081 -1.047793,0.896562 -2.103592,0.224781 z m 2.419748,-13.523429 1.925591,-0.99576 -1.237219,-2.424118 c -1.463279,-2.867046 -3.639837,-4.992069 -4.542027,-4.434487 -1.004998,0.621123 -2.780663,6.569969 -2.319655,7.771332 0.526894,1.373065 3.598766,1.414383 6.17331,0.08304 z"
       id="path3101" />
  </g>
</svg>
