<?xml version="1.0" encoding="UTF-8" standalone="no"?>
<!-- Created with Inkscape (http://www.inkscape.org/) -->

<svg
   width="32mm"
   height="32mm"
   viewBox="0 0 32 32"
   version="1.1"
   id="svg4202"
   inkscape:version="1.2.2 (732a01da63, 2022-12-09)"
   sodipodi:docname="letter_k.svg"
   xmlns:inkscape="http://www.inkscape.org/namespaces/inkscape"
   xmlns:sodipodi="http://sodipodi.sourceforge.net/DTD/sodipodi-0.dtd"
   xmlns="http://www.w3.org/2000/svg"
   xmlns:svg="http://www.w3.org/2000/svg">
  <sodipodi:namedview
     id="namedview4204"
     pagecolor="#ffffff"
     bordercolor="#666666"
     borderopacity="1.0"
     inkscape:showpageshadow="2"
     inkscape:pageopacity="0.0"
     inkscape:pagecheckerboard="0"
     inkscape:deskcolor="#d1d1d1"
     inkscape:document-units="mm"
     showgrid="false"
     inkscape:zoom="0.84541947"
     inkscape:cx="-414.58709"
     inkscape:cy="221.19197"
     inkscape:window-width="1920"
     inkscape:window-height="1129"
     inkscape:window-x="1912"
     inkscape:window-y="-8"
     inkscape:window-maximized="1"
     inkscape:current-layer="layer1" />
  <defs
     id="defs4199" />
  <g
     inkscape:label="Layer 1"
     inkscape:groupmode="layer"
     id="layer1"
     transform="translate(-70.152939,-90.228356)">
    <path
       style="fill:#000000;stroke-width:0.675204"
       d="m 81.385484,119.16419 c -0.809837,-0.48288 -1.181608,-1.55123 -1.181608,-3.39558 0,-2.50598 -0.09542,-2.63995 -1.387842,-1.94827 -2.422603,1.29654 -2.797708,0.51965 -2.901317,-6.00897 -0.116777,-7.35858 0.242844,-7.929507 4.30578,-6.83547 1.551279,0.41771 2.888235,0.66355 2.971011,0.5463 0.08279,-0.11724 0.868034,-1.27662 1.745018,-2.576393 2.063268,-3.057951 5.423227,-6.014515 6.874781,-6.0494 2.265475,-0.05446 2.001679,1.50245 -0.725385,4.281125 -1.528774,1.557708 -2.779591,3.048578 -2.779591,3.313048 0,0.95668 1.66674,0.44528 4.144088,-1.271523 2.671536,-1.851376 3.958367,-1.71281 3.958367,0.426238 0,1.660855 -2.347178,3.180575 -7.245185,4.691015 -2.968824,0.91553 -3.947023,1.5417 -4.111453,2.63186 -0.182899,1.21266 0.125556,1.43107 2.025613,1.43426 3.161821,0.005 6.998222,1.17574 8.064311,2.4603 0.787712,0.94914 0.51266,1.43365 -2.121332,3.73676 -4.456795,3.89693 -9.46196,5.86056 -11.635256,4.5647 z m 6.569134,-5.14754 2.662579,-1.80927 -1.896689,-0.63223 c -2.669867,-0.88996 -4.971807,0.27209 -4.971807,2.50983 0,2.20656 0.879143,2.19226 4.205917,-0.0683 z m -6.825904,-5.78678 c 0.645696,-2.40941 0.499619,-3.20722 -0.587235,-3.20722 -0.707358,0 -1.012807,0.71271 -1.012807,2.36321 0,2.65166 0.977437,3.16725 1.600042,0.84401 z"
       id="path3113" />
  </g>
</svg>
