<?xml version="1.0" encoding="UTF-8" standalone="no"?>
<!-- Created with Inkscape (http://www.inkscape.org/) -->

<svg
   width="32mm"
   height="32mm"
   viewBox="0 0 32.000001 31.999998"
   version="1.1"
   id="svg3891"
   inkscape:version="1.2.2 (732a01da63, 2022-12-09)"
   sodipodi:docname="letter_i.svg"
   xmlns:inkscape="http://www.inkscape.org/namespaces/inkscape"
   xmlns:sodipodi="http://sodipodi.sourceforge.net/DTD/sodipodi-0.dtd"
   xmlns="http://www.w3.org/2000/svg"
   xmlns:svg="http://www.w3.org/2000/svg">
  <sodipodi:namedview
     id="namedview3893"
     pagecolor="#ffffff"
     bordercolor="#666666"
     borderopacity="1.0"
     inkscape:showpageshadow="2"
     inkscape:pageopacity="0.0"
     inkscape:pagecheckerboard="0"
     inkscape:deskcolor="#d1d1d1"
     inkscape:document-units="mm"
     showgrid="false"
     inkscape:zoom="0.84541947"
     inkscape:cx="-324.69089"
     inkscape:cy="334.74507"
     inkscape:window-width="1920"
     inkscape:window-height="1129"
     inkscape:window-x="1912"
     inkscape:window-y="-8"
     inkscape:window-maximized="1"
     inkscape:current-layer="layer1" />
  <defs
     id="defs3888" />
  <g
     inkscape:label="Layer 1"
     inkscape:groupmode="layer"
     id="layer1"
     transform="translate(-46.41989,-59.946128)">
    <path
       style="fill:#000000;stroke-width:0.685036"
       d="m 61.959694,88.051619 c -2.017362,-5.72881 -2.073986,-5.790674 -4.263964,-4.658203 -1.118886,0.578611 -2.226743,1.36331 -2.461887,1.743778 -0.573825,0.928438 -3.084543,-0.417842 -3.084543,-1.653964 0,-1.058053 5.106643,-5.878425 6.227523,-5.878425 0.488618,0 0.583354,-0.946485 0.276518,-2.762682 -0.340184,-2.013615 -0.166481,-3.220923 0.640625,-4.452741 1.348152,-2.057545 2.513565,-2.137567 4.187791,-0.287558 1.652245,1.825705 4.765915,1.580746 4.765915,-0.374943 0,-2.233488 -3.853769,-3.717628 -8.712401,-3.355258 -3.868942,0.288557 -6.015888,-0.358562 -6.015888,-1.813272 0,-1.149539 5.11208,-2.161065 9.631149,-1.905714 6.798241,0.384134 10.480456,3.615822 9.332287,8.190487 -0.772256,3.076885 -3.062743,4.812527 -6.189826,4.690427 -1.562324,-0.061 -3.087106,-0.08233 -3.388402,-0.04738 -1.160079,0.134531 0.80708,2.344391 2.852507,3.204428 1.988881,0.836261 2.14806,0.802522 2.14806,-0.45532 0,-1.89166 1.843787,-2.404118 3.442929,-0.956919 1.06612,0.964829 1.257456,1.779217 0.944924,4.022047 -0.674931,4.843726 -0.659163,4.832901 -4.101963,2.815291 -1.723471,-1.010027 -3.303841,-1.666174 -3.511902,-1.458105 -0.208165,0.208061 -0.06628,1.607613 0.315069,3.110095 0.381377,1.502482 0.524451,2.900753 0.317918,3.107268 -0.826679,0.826677 -2.955502,0.303851 -3.352439,-0.823331 z"
       id="path3109" />
  </g>
</svg>
