<?xml version="1.0" encoding="UTF-8" standalone="no"?>
<!-- Created with Inkscape (http://www.inkscape.org/) -->

<svg
   width="32mm"
   height="32mm"
   viewBox="0 0 32.000002 32.000002"
   version="1.1"
   id="svg2514"
   inkscape:version="1.2.2 (732a01da63, 2022-12-09)"
   sodipodi:docname="letter_a.svg"
   xmlns:inkscape="http://www.inkscape.org/namespaces/inkscape"
   xmlns:sodipodi="http://sodipodi.sourceforge.net/DTD/sodipodi-0.dtd"
   xmlns="http://www.w3.org/2000/svg"
   xmlns:svg="http://www.w3.org/2000/svg">
  <sodipodi:namedview
     id="namedview2516"
     pagecolor="#ffffff"
     bordercolor="#666666"
     borderopacity="1.0"
     inkscape:showpageshadow="2"
     inkscape:pageopacity="0.0"
     inkscape:pagecheckerboard="0"
     inkscape:deskcolor="#d1d1d1"
     inkscape:document-units="mm"
     showgrid="false"
     inkscape:zoom="0.86858165"
     inkscape:cx="-189.38922"
     inkscape:cy="247.52998"
     inkscape:window-width="1920"
     inkscape:window-height="1129"
     inkscape:window-x="1912"
     inkscape:window-y="-8"
     inkscape:window-maximized="1"
     inkscape:current-layer="layer1" />
  <defs
     id="defs2511" />
  <g
     inkscape:label="Layer 1"
     inkscape:groupmode="layer"
     id="layer1"
     transform="translate(-60.023627,-83.25067)">
    <path
       style="fill:#000000;stroke-width:0.654211"
       d="m 73.21466,112.29012 c -1.066487,-1.72563 -1.151421,-9.26976 -0.152312,-13.53343 1.025194,-4.37511 3.19459,-8.88161 4.275567,-8.88161 1.223004,0 1.17187,2.981645 -0.09371,5.462281 -0.909575,1.782922 -1.464083,4.431658 -1.691762,8.081179 l -0.338698,5.42894 3.199734,-0.3828 c 5.120558,-0.61261 5.126121,-0.61802 3.474391,-3.37913 -0.807209,-1.34933 -2.006747,-3.05891 -2.665649,-3.79905 -0.927897,-1.04228 -1.022055,-1.521696 -0.41755,-2.126188 1.267238,-1.267237 2.318222,-0.911798 3.979101,1.345718 2.306849,3.13552 3.191179,5.84464 2.960286,9.0688 -0.177039,2.47022 -0.388077,2.83487 -1.514005,2.61464 -2.103996,-0.41155 -7.051867,-0.28313 -8.918739,0.23146 -0.947307,0.26113 -1.890831,0.20226 -2.096676,-0.13083 z M 66.927845,101.81445 C 65.9433,98.269296 66.084684,90.857157 67.187173,88.218536 c 1.285387,-3.076338 3.28039,-3.067167 4.570698,0.02102 0.526197,1.259359 1.266151,2.289741 1.644312,2.289741 0.984619,0 0.848947,1.668526 -0.206957,2.54481 -0.680389,0.564671 -1.09109,0.505543 -1.715647,-0.246989 -1.65262,-1.991291 -2.114504,-1.021006 -1.786858,3.753651 0.179017,2.608671 0.539919,5.405421 0.802016,6.215011 0.410577,1.26824 0.2438,1.47198 -1.204533,1.47198 -1.385331,0 -1.800952,-0.43163 -2.362408,-2.4533 z"
       id="path1722" />
  </g>
</svg>
