<?xml version="1.0" encoding="UTF-8" standalone="no"?>
<!-- Created with Inkscape (http://www.inkscape.org/) -->

<svg
   width="32mm"
   height="32mm"
   viewBox="0 0 32 32"
   version="1.1"
   id="svg7720"
   inkscape:version="1.2.2 (732a01da63, 2022-12-09)"
   sodipodi:docname="letterbad_17_bad_E.svg"
   xmlns:inkscape="http://www.inkscape.org/namespaces/inkscape"
   xmlns:sodipodi="http://sodipodi.sourceforge.net/DTD/sodipodi-0.dtd"
   xmlns="http://www.w3.org/2000/svg"
   xmlns:svg="http://www.w3.org/2000/svg">
  <sodipodi:namedview
     id="namedview7722"
     pagecolor="#ffffff"
     bordercolor="#666666"
     borderopacity="1.0"
     inkscape:showpageshadow="2"
     inkscape:pageopacity="0.0"
     inkscape:pagecheckerboard="0"
     inkscape:deskcolor="#d1d1d1"
     inkscape:document-units="mm"
     showgrid="false"
     inkscape:zoom="0.84541947"
     inkscape:cx="-377.9189"
     inkscape:cy="255.49447"
     inkscape:window-width="1920"
     inkscape:window-height="1129"
     inkscape:window-x="1912"
     inkscape:window-y="-8"
     inkscape:window-maximized="1"
     inkscape:current-layer="layer1" />
  <defs
     id="defs7717" />
  <g
     inkscape:label="Layer 1"
     inkscape:groupmode="layer"
     id="layer1"
     transform="translate(-60.546956,-80.991345)">
    <path
       style="fill:#000000;stroke-width:0.485674"
       d="m 64.460064,109.78953 c -0.278647,-0.35487 -0.620569,-1.11232 -0.759819,-1.68323 -0.419072,-1.71803 0.590391,-22.5658 1.14262,-23.597638 0.490716,-0.916893 0.949365,-0.948971 10.790482,-0.754702 9.909733,0.195625 12.94921,0.626373 12.94921,1.835128 0,1.100375 -2.860927,1.457025 -11.687807,1.457025 h -9.196209 l -0.05066,1.335606 c -0.0279,0.734583 -0.131614,5.101567 -0.230829,9.704402 l -0.180258,8.368819 11.037098,0.13051 c 10.928356,0.12923 11.038585,0.14097 11.187986,1.19042 0.290102,2.03774 -1.252977,2.32784 -13.294417,2.49936 -8.883363,0.12648 -11.305668,0.0261 -11.707486,-0.48569 z"
       id="path4958" />
  </g>
</svg>
