<?xml version="1.0" encoding="UTF-8" standalone="no"?>
<!-- Created with Inkscape (http://www.inkscape.org/) -->

<svg
   width="32mm"
   height="32mm"
   viewBox="0 0 31.999999 31.999999"
   version="1.1"
   id="svg5"
   xml:space="preserve"
   inkscape:version="1.2.2 (732a01da63, 2022-12-09)"
   sodipodi:docname="letter_n.svg"
   xmlns:inkscape="http://www.inkscape.org/namespaces/inkscape"
   xmlns:sodipodi="http://sodipodi.sourceforge.net/DTD/sodipodi-0.dtd"
   xmlns="http://www.w3.org/2000/svg"
   xmlns:svg="http://www.w3.org/2000/svg"><sodipodi:namedview
     id="namedview7"
     pagecolor="#ffffff"
     bordercolor="#666666"
     borderopacity="1.0"
     inkscape:showpageshadow="2"
     inkscape:pageopacity="0.0"
     inkscape:pagecheckerboard="0"
     inkscape:deskcolor="#d1d1d1"
     inkscape:document-units="mm"
     showgrid="false"
     inkscape:zoom="0.84541947"
     inkscape:cx="-390.9302"
     inkscape:cy="151.40413"
     inkscape:window-width="1920"
     inkscape:window-height="1129"
     inkscape:window-x="1912"
     inkscape:window-y="-8"
     inkscape:window-maximized="1"
     inkscape:current-layer="layer1" /><defs
     id="defs2" /><g
     inkscape:label="Layer 1"
     inkscape:groupmode="layer"
     id="layer1"
     transform="translate(-64.088922,-108.94914)"><path
       style="fill:#000000;stroke-width:0.691383"
       d="m 74.706498,137.33022 c -0.76052,-0.3113 -1.920968,-1.16474 -2.578772,-1.89657 -1.285803,-1.43049 -5.372137,-13.11673 -5.372137,-15.36342 0,-2.8747 11.05198,-2.52619 16.180315,0.51021 1.803645,1.06789 2.129156,1.66509 2.064056,3.78685 -0.09198,2.99794 -3.1499,7.39406 -5.143271,7.39406 -1.801257,0 -1.697838,-1.01581 0.380878,-3.74115 2.391721,-3.1357 2.196749,-4.19628 -0.944444,-5.13738 -2.515898,-0.75378 -8.389233,-1.12343 -8.389233,-0.52796 0,1.08583 2.964317,9.29716 3.701424,10.25319 1.275157,1.65384 9.346653,2.26313 12.504068,0.94388 2.24383,-0.93753 2.29508,-1.05104 2.050536,-4.5411 -0.328674,-4.69073 -3.320653,-11.35689 -5.554046,-12.37448 -2.200457,-1.0026 -4.572765,-0.98592 -6.842203,0.0481 -1.471112,0.67029 -1.924268,0.64084 -2.417398,-0.15705 -1.589056,-2.57116 5.252583,-5.54615 9.666589,-4.20341 3.100904,0.94331 5.195659,3.9918 7.269655,10.57954 3.586748,11.39279 3.028751,13.18305 -4.476804,14.36321 -5.284862,0.83097 -10.161487,0.85655 -12.099213,0.0635 z m 0.849172,-9.88069 c -0.757039,-0.56569 -0.961658,-1.20211 -0.580579,-1.80581 0.843052,-1.33554 3.188325,-0.68519 3.188325,0.88411 0,1.66256 -1.097234,2.05037 -2.607746,0.9217 z"
       id="path592" /></g></svg>
