<?xml version="1.0" encoding="UTF-8" standalone="no"?>
<!-- Created with Inkscape (http://www.inkscape.org/) -->

<svg
   width="32mm"
   height="32mm"
   viewBox="0 0 31.999999 32.000001"
   version="1.1"
   id="svg5293"
   inkscape:version="1.2.2 (732a01da63, 2022-12-09)"
   sodipodi:docname="letterbad_02_comp_3.svg"
   xmlns:inkscape="http://www.inkscape.org/namespaces/inkscape"
   xmlns:sodipodi="http://sodipodi.sourceforge.net/DTD/sodipodi-0.dtd"
   xmlns="http://www.w3.org/2000/svg"
   xmlns:svg="http://www.w3.org/2000/svg">
  <sodipodi:namedview
     id="namedview5295"
     pagecolor="#ffffff"
     bordercolor="#666666"
     borderopacity="1.0"
     inkscape:showpageshadow="2"
     inkscape:pageopacity="0.0"
     inkscape:pagecheckerboard="0"
     inkscape:deskcolor="#d1d1d1"
     inkscape:document-units="mm"
     showgrid="false"
     inkscape:zoom="0.84541947"
     inkscape:cx="-280.92563"
     inkscape:cy="309.90533"
     inkscape:window-width="1920"
     inkscape:window-height="1129"
     inkscape:window-x="1912"
     inkscape:window-y="-8"
     inkscape:window-maximized="1"
     inkscape:current-layer="layer1" />
  <defs
     id="defs5290" />
  <g
     inkscape:label="Layer 1"
     inkscape:groupmode="layer"
     id="layer1"
     transform="translate(-34.589655,-66.726277)">
    <path
       style="fill:#000000;stroke-width:0.524861"
       d="m 46.158973,92.182126 c -0.580595,-0.580595 -1.217564,-2.135495 -1.415486,-3.455334 -0.197916,-1.319841 -0.536907,-2.399708 -0.7533,-2.399708 -0.216395,0 -1.475893,1.157224 -2.798888,2.571612 -2.087289,2.231482 -2.52527,2.483993 -3.311427,1.90914 -0.853564,-0.624142 -0.846551,-0.765342 0.121206,-2.440398 0.564957,-0.977859 2.128049,-2.486486 3.473537,-3.352506 3.070603,-1.976389 3.427316,-3.780862 0.797538,-4.03442 -1.301067,-0.125451 -1.705797,-0.413533 -1.705797,-1.214191 0,-0.797197 0.437383,-1.112853 1.818159,-1.312153 1.35793,-0.195991 2.11358,-0.727434 2.985222,-2.099445 2.264518,-3.564461 3.205953,-4.506822 3.861751,-3.865549 0.461877,0.451647 0.421802,0.959522 -0.165661,2.099444 -0.925553,1.795943 -2.545401,7.107834 -2.25582,7.397414 0.112298,0.112298 1.266173,0.308173 2.564169,0.435282 l 2.359992,0.231107 0.364603,-1.943499 c 0.721231,-3.844498 3.369631,-8.028225 5.082059,-8.028225 1.35495,0 1.208296,1.400352 -0.339263,3.239518 -1.793124,2.131008 -3.071618,6.736246 -2.617049,9.426822 0.514293,3.044073 1.510975,1.765148 1.595349,-2.04712 0.0373,-1.685345 0.460865,-3.770908 0.962977,-4.741537 0.993993,-1.921487 2.480658,-2.797222 2.852892,-1.680522 0.130529,0.391593 1.148492,1.700484 2.262135,2.908643 1.113642,1.208161 2.024806,2.436822 2.024806,2.730359 0,0.293538 -0.767609,0.847619 -1.705799,1.231291 -2.65862,1.087246 -3.305581,1.908931 -2.358615,2.9956 0.429197,0.492516 1.071282,1.456942 1.426854,2.143171 1.022746,1.973824 -0.399786,2.467435 -2.184164,0.757893 l -1.420749,-1.361164 -0.339143,1.514806 c -0.66254,2.959272 -0.845519,3.35182 -1.562388,3.35182 -0.890915,0 -3.056893,-2.791156 -4.023974,-5.185438 l -0.716476,-1.773843 -1.414754,2.041491 c -0.778113,1.122817 -1.494566,2.564475 -1.592116,3.203683 -0.265381,1.738933 -0.704468,1.913868 -1.87238,0.745956 z m 1.999406,-5.820538 c 0.755194,-1.41109 0.692882,-1.609087 -0.506393,-1.609087 -0.769797,0 -1.049723,0.349908 -1.049723,1.312151 0,1.562739 0.797262,1.714871 1.556116,0.296936 z M 59.542671,81.84313 c 0.425039,-1.107638 -0.284396,-1.705642 -0.889106,-0.749456 -0.642539,1.016001 -0.629654,1.559383 0.03698,1.559383 0.297731,0 0.681192,-0.364467 0.852129,-0.809927 z"
       id="path4928" />
    <path
       style="fill:#000000;stroke-width:0.524861"
       d="m 46.158973,92.182126 c -0.580595,-0.580595 -1.217564,-2.135495 -1.415486,-3.455334 -0.197916,-1.319841 -0.536907,-2.399708 -0.7533,-2.399708 -0.216395,0 -1.475893,1.157224 -2.798888,2.571612 -2.087289,2.231482 -2.52527,2.483993 -3.311427,1.90914 -0.853564,-0.624142 -0.846551,-0.765342 0.121206,-2.440398 0.564957,-0.977859 2.128049,-2.486486 3.473537,-3.352506 3.070603,-1.976389 3.427316,-3.780862 0.797538,-4.03442 -1.301067,-0.125451 -1.705797,-0.413533 -1.705797,-1.214191 0,-0.797197 0.437383,-1.112853 1.818159,-1.312153 1.35793,-0.195991 2.11358,-0.727434 2.985222,-2.099445 2.264518,-3.564461 3.205953,-4.506822 3.861751,-3.865549 0.461877,0.451647 0.421802,0.959522 -0.165661,2.099444 -0.925553,1.795943 -2.545401,7.107834 -2.25582,7.397414 0.112298,0.112298 1.266173,0.308173 2.564169,0.435282 l 2.359992,0.231107 0.364603,-1.943499 c 0.721231,-3.844498 3.369631,-8.028225 5.082059,-8.028225 1.35495,0 1.208296,1.400352 -0.339263,3.239518 -1.793124,2.131008 -3.071618,6.736246 -2.617049,9.426822 0.514293,3.044073 1.510975,1.765148 1.595349,-2.04712 0.0373,-1.685345 0.460865,-3.770908 0.962977,-4.741537 0.993993,-1.921487 2.480658,-2.797222 2.852892,-1.680522 0.130529,0.391593 1.148492,1.700484 2.262135,2.908643 1.113642,1.208161 2.024806,2.436822 2.024806,2.730359 0,0.293538 -0.767609,0.847619 -1.705799,1.231291 -2.65862,1.087246 -3.305581,1.908931 -2.358615,2.9956 0.429197,0.492516 1.071282,1.456942 1.426854,2.143171 1.022746,1.973824 -0.399786,2.467435 -2.184164,0.757893 l -1.420749,-1.361164 -0.339143,1.514806 c -0.66254,2.959272 -0.845519,3.35182 -1.562388,3.35182 -0.890915,0 -3.056893,-2.791156 -4.023974,-5.185438 l -0.716476,-1.773843 -1.414754,2.041491 c -0.778113,1.122817 -1.494566,2.564475 -1.592116,3.203683 -0.265381,1.738933 -0.704468,1.913868 -1.87238,0.745956 z m 1.999406,-5.820538 c 0.755194,-1.41109 0.692882,-1.609087 -0.506393,-1.609087 -0.769797,0 -1.049723,0.349908 -1.049723,1.312151 0,1.562739 0.797262,1.714871 1.556116,0.296936 z M 59.542671,81.84313 c 0.425039,-1.107638 -0.284396,-1.705642 -0.889106,-0.749456 -0.642539,1.016001 -0.629654,1.559383 0.03698,1.559383 0.297731,0 0.681192,-0.364467 0.852129,-0.809927 z"
       id="path5427" />
  </g>
</svg>
