<?xml version="1.0" encoding="UTF-8" standalone="no"?>
<!-- Created with Inkscape (http://www.inkscape.org/) -->

<svg
   width="32mm"
   height="32mm"
   viewBox="0 0 31.999999 32.000001"
   version="1.1"
   id="svg4504"
   inkscape:version="1.2.2 (732a01da63, 2022-12-09)"
   sodipodi:docname="letter_m.svg"
   xmlns:inkscape="http://www.inkscape.org/namespaces/inkscape"
   xmlns:sodipodi="http://sodipodi.sourceforge.net/DTD/sodipodi-0.dtd"
   xmlns="http://www.w3.org/2000/svg"
   xmlns:svg="http://www.w3.org/2000/svg">
  <sodipodi:namedview
     id="namedview4506"
     pagecolor="#ffffff"
     bordercolor="#666666"
     borderopacity="1.0"
     inkscape:showpageshadow="2"
     inkscape:pageopacity="0.0"
     inkscape:pagecheckerboard="0"
     inkscape:deskcolor="#d1d1d1"
     inkscape:document-units="mm"
     showgrid="false"
     inkscape:zoom="0.84541947"
     inkscape:cx="-305.76537"
     inkscape:cy="280.33421"
     inkscape:window-width="1920"
     inkscape:window-height="1129"
     inkscape:window-x="1912"
     inkscape:window-y="-8"
     inkscape:window-maximized="1"
     inkscape:current-layer="layer1" />
  <defs
     id="defs4501" />
  <g
     inkscape:label="Layer 1"
     inkscape:groupmode="layer"
     id="layer1"
     transform="translate(-41.755601,-74.573841)">
    <path
       style="fill:#000000;stroke-width:0.674369"
       d="m 48.365646,102.28854 c -1.804016,-2.753236 -1.939179,-8.257297 -0.26816,-10.919041 1.939816,-3.089942 2.986022,-3.276223 6.998498,-1.246096 3.812675,1.929035 9.90724,2.503697 9.879636,0.931556 -0.03364,-1.909401 -2.65506,-6.463435 -4.458617,-7.745444 -2.915573,-2.072445 -6.798442,-3.00135 -7.281695,-1.742013 -1.023904,2.668273 0.985621,3.94604 3.601507,2.290041 1.204869,-0.762736 2.758643,-0.19144 2.758643,1.014323 0,1.138947 -3.433005,2.983079 -5.530056,2.970625 -4.576347,-0.02719 -5.134025,-0.964336 -4.143076,-6.96211 0.784113,-4.745827 5.61929,-4.859797 12.262638,-0.289045 3.103445,2.13522 6.124462,7.385847 6.384211,11.095909 0.109853,1.56777 -0.241627,1.990724 -2.230023,2.683737 -3.537124,1.232843 -8.712158,1.047038 -11.965167,-0.42959 -2.841939,-1.290042 -2.866025,-1.289675 -3.585322,0.05437 -0.833636,1.557651 -0.178671,5.534948 0.810825,4.923432 0.363612,-0.224728 0.938341,-1.137764 1.277178,-2.028993 0.692968,-1.82264 2.108317,-2.101321 3.311173,-0.651971 1.043046,1.256791 0.179691,2.893871 -2.9966,5.68276 -2.922506,2.56601 -3.363142,2.59957 -4.825593,0.36755 z"
       id="path3117" />
  </g>
</svg>
