<?xml version="1.0" encoding="UTF-8" standalone="no"?>
<!-- Created with Inkscape (http://www.inkscape.org/) -->

<svg
   width="32mm"
   height="32mm"
   viewBox="0 0 31.999999 31.999999"
   version="1.1"
   id="svg6660"
   inkscape:version="1.2.2 (732a01da63, 2022-12-09)"
   sodipodi:docname="letterbad_11_number_8.svg"
   xmlns:inkscape="http://www.inkscape.org/namespaces/inkscape"
   xmlns:sodipodi="http://sodipodi.sourceforge.net/DTD/sodipodi-0.dtd"
   xmlns="http://www.w3.org/2000/svg"
   xmlns:svg="http://www.w3.org/2000/svg">
  <sodipodi:namedview
     id="namedview6662"
     pagecolor="#ffffff"
     bordercolor="#666666"
     borderopacity="1.0"
     inkscape:showpageshadow="2"
     inkscape:pageopacity="0.0"
     inkscape:pagecheckerboard="0"
     inkscape:deskcolor="#d1d1d1"
     inkscape:document-units="mm"
     showgrid="false"
     inkscape:zoom="0.84541947"
     inkscape:cx="-357.81054"
     inkscape:cy="243.66602"
     inkscape:window-width="1920"
     inkscape:window-height="1129"
     inkscape:window-x="1912"
     inkscape:window-y="-8"
     inkscape:window-maximized="1"
     inkscape:current-layer="layer1" />
  <defs
     id="defs6657" />
  <g
     inkscape:label="Layer 1"
     inkscape:groupmode="layer"
     id="layer1"
     transform="translate(-55.033943,-84.036344)">
    <path
       style="fill:#000000;stroke-width:0.684003"
       d="m 65.704451,112.91284 c -0.250765,-0.25079 -0.456005,-6.07828 -0.456005,-12.949966 0,-11.87452 0.06747,-12.515401 1.361888,-12.926216 2.769716,-0.879075 2.932585,-0.06285 2.44049,12.231081 -0.257745,6.438901 -0.623837,12.245741 -0.813565,12.904101 -0.346367,1.2018 -1.681421,1.59239 -2.532808,0.741 z m 7.552897,-0.65515 c -0.987085,-0.98706 -0.440339,-2.91481 0.952003,-3.35672 1.729687,-0.54898 2.884836,0.43377 2.553308,2.17221 -0.24456,1.2818 -2.609019,2.08083 -3.505311,1.18451 z m -0.903117,-11.49493 c -0.681022,-1.774766 0.273541,-3.241619 1.954211,-3.002963 2.191948,0.311259 2.191948,3.546703 0,3.857963 -0.924962,0.13135 -1.706988,-0.2108 -1.954211,-0.855 z m -0.02068,-11.000741 c -0.376898,-0.982157 0.803923,-3.081203 1.720741,-3.05883 1.346042,0.03286 2.240886,1.327815 1.824383,2.640145 -0.533691,1.681433 -2.951017,1.966926 -3.545124,0.418685 z"
       id="path4946" />
  </g>
</svg>
