<?xml version="1.0" encoding="UTF-8" standalone="no"?>
<!-- Created with Inkscape (http://www.inkscape.org/) -->

<svg
   width="32mm"
   height="32mm"
   viewBox="0 0 32 32.000002"
   version="1.1"
   id="svg8475"
   inkscape:version="1.2.2 (732a01da63, 2022-12-09)"
   sodipodi:docname="letterbad_22_bad_J.svg"
   xmlns:inkscape="http://www.inkscape.org/namespaces/inkscape"
   xmlns:sodipodi="http://sodipodi.sourceforge.net/DTD/sodipodi-0.dtd"
   xmlns="http://www.w3.org/2000/svg"
   xmlns:svg="http://www.w3.org/2000/svg">
  <sodipodi:namedview
     id="namedview8477"
     pagecolor="#ffffff"
     bordercolor="#666666"
     borderopacity="1.0"
     inkscape:showpageshadow="2"
     inkscape:pageopacity="0.0"
     inkscape:pagecheckerboard="0"
     inkscape:deskcolor="#d1d1d1"
     inkscape:document-units="mm"
     showgrid="false"
     inkscape:zoom="0.84541947"
     inkscape:cx="-335.33649"
     inkscape:cy="298.07688"
     inkscape:window-width="1920"
     inkscape:window-height="1129"
     inkscape:window-x="1912"
     inkscape:window-y="-8"
     inkscape:window-maximized="1"
     inkscape:current-layer="layer1" />
  <defs
     id="defs8472" />
  <g
     inkscape:label="Layer 1"
     inkscape:groupmode="layer"
     id="layer1"
     transform="translate(-49.015002,-69.913431)">
    <path
       style="fill:#000000;stroke-width:0.521704"
       d="m 59.782349,97.937425 c -4.060516,-1.890718 -6.263867,-4.38382 -6.9975,-7.917717 -1.870223,-9.008811 4.023575,-17.43961 12.191651,-17.43961 1.821173,0 2.962055,0.438784 5.435558,2.09052 3.944464,2.634007 5.636543,4.846168 6.650955,8.695197 0.968113,3.673382 0.639927,6.283609 -1.226419,9.753935 -3.052896,5.67661 -9.837263,7.71251 -16.054245,4.817675 z m 10.134985,-3.812117 c 2.456387,-1.8193 3.743498,-4.236882 3.743498,-7.031394 0,-3.450962 -0.960877,-5.49201 -3.824125,-8.122941 -2.149655,-1.975249 -2.690578,-2.217248 -4.956056,-2.217248 -2.970258,0 -5.393756,1.389782 -7.299696,4.186069 -1.102847,1.618057 -1.211789,2.251261 -1.010646,5.874381 0.209327,3.770296 0.351927,4.191334 1.993173,5.884675 0.972254,1.003113 2.47792,2.042822 3.345925,2.310454 2.392087,0.737552 6.418657,0.293069 8.007927,-0.883996 z"
       id="path4968" />
  </g>
</svg>
