<?xml version="1.0" encoding="UTF-8" standalone="no"?>
<!-- Created with Inkscape (http://www.inkscape.org/) -->

<svg
   width="32mm"
   height="32mm"
   viewBox="0 0 31.999999 32.000001"
   version="1.1"
   id="svg7258"
   inkscape:version="1.2.2 (732a01da63, 2022-12-09)"
   sodipodi:docname="letterbad_14_bad_B.svg"
   xmlns:inkscape="http://www.inkscape.org/namespaces/inkscape"
   xmlns:sodipodi="http://sodipodi.sourceforge.net/DTD/sodipodi-0.dtd"
   xmlns="http://www.w3.org/2000/svg"
   xmlns:svg="http://www.w3.org/2000/svg">
  <sodipodi:namedview
     id="namedview7260"
     pagecolor="#ffffff"
     bordercolor="#666666"
     borderopacity="1.0"
     inkscape:showpageshadow="2"
     inkscape:pageopacity="0.0"
     inkscape:pagecheckerboard="0"
     inkscape:deskcolor="#d1d1d1"
     inkscape:document-units="mm"
     showgrid="false"
     inkscape:zoom="0.84541947"
     inkscape:cx="-457.1695"
     inkscape:cy="178.60956"
     inkscape:window-width="1920"
     inkscape:window-height="1129"
     inkscape:window-x="1912"
     inkscape:window-y="-8"
     inkscape:window-maximized="1"
     inkscape:current-layer="layer1" />
  <defs
     id="defs7255" />
  <g
     inkscape:label="Layer 1"
     inkscape:groupmode="layer"
     id="layer1"
     transform="translate(-81.640881,-101.79526)">
    <path
       style="fill:#000000;stroke-width:0.487258"
       d="m 86.240854,128.61687 c -0.516153,-1.57266 -1.12029,-7.38069 -1.810843,-17.40899 -0.246945,-3.58618 -0.172117,-4.11333 0.708955,-4.99441 0.887443,-0.88743 1.576445,-0.98023 6.953965,-0.93647 8.782749,0.0714 8.356559,-0.18917 8.648849,5.28945 l 0.24363,4.56658 2.77896,-3.25919 c 1.52844,-1.79256 3.45026,-3.82404 4.27072,-4.51441 1.42235,-1.19682 2.93912,-1.29014 2.93912,-0.18084 0,0.28545 -1.76593,2.39378 -3.92429,4.68518 -2.15836,2.2914 -4.37938,5.18928 -4.93559,6.43974 -1.60729,3.61342 -1.68024,3.72736 -2.488234,3.88653 -1.324465,0.2609 -1.866481,-1.73019 -1.960518,-7.20196 -0.05004,-2.91181 -0.245873,-5.44886 -0.435181,-5.63787 -0.189308,-0.18902 -2.334188,-0.45714 -4.766399,-0.59581 l -4.422202,-0.25216 0.05551,8.23008 c 0.03762,5.57786 -0.162374,9.0937 -0.620613,10.91 l -0.676122,2.67993 z"
       id="path4952" />
  </g>
</svg>
