<?xml version="1.0" encoding="UTF-8" standalone="no"?>
<!-- Created with Inkscape (http://www.inkscape.org/) -->

<svg
   width="32mm"
   height="32mm"
   viewBox="0 0 31.999998 32"
   version="1.1"
   id="svg1448"
   inkscape:version="1.2.2 (732a01da63, 2022-12-09)"
   sodipodi:docname="letter_u.svg"
   xmlns:inkscape="http://www.inkscape.org/namespaces/inkscape"
   xmlns:sodipodi="http://sodipodi.sourceforge.net/DTD/sodipodi-0.dtd"
   xmlns="http://www.w3.org/2000/svg"
   xmlns:svg="http://www.w3.org/2000/svg">
  <sodipodi:namedview
     id="namedview1450"
     pagecolor="#ffffff"
     bordercolor="#666666"
     borderopacity="1.0"
     inkscape:showpageshadow="2"
     inkscape:pageopacity="0.0"
     inkscape:pagecheckerboard="0"
     inkscape:deskcolor="#d1d1d1"
     inkscape:document-units="mm"
     showgrid="false"
     inkscape:zoom="0.86858165"
     inkscape:cx="-476.06348"
     inkscape:cy="-85.196366"
     inkscape:window-width="1920"
     inkscape:window-height="1129"
     inkscape:window-x="1912"
     inkscape:window-y="-8"
     inkscape:window-maximized="1"
     inkscape:current-layer="layer1" />
  <defs
     id="defs1445" />
  <g
     inkscape:label="Layer 1"
     inkscape:groupmode="layer"
     id="layer1"
     transform="translate(-90.035504,-171.53239)">
    <path
       style="fill:#000000;stroke-width:0.516356"
       d="m 109.86005,196.98487 c -0.28447,-0.35498 -1.17756,-2.35056 -1.98462,-4.43459 -1.61791,-4.17778 -1.79241,-4.11318 -2.79151,1.0335 -0.54933,2.82979 -1.31428,3.80068 -2.43857,3.09515 -0.29754,-0.18678 -0.68006,-1.76487 -0.85005,-3.50694 -0.33975,-3.48175 -0.5089,-4.11115 -1.93254,-7.19094 -1.103446,-2.38709 -3.046445,-4.37011 -5.489929,-5.603 -2.57262,-1.29807 -2.043037,-3.3484 0.687798,-2.66301 2.21907,0.55697 5.454821,3.99002 7.211581,7.65138 0.91968,1.91675 1.77977,3.19472 1.91129,2.83997 0.13153,-0.35478 0.53206,-2.27157 0.89008,-4.25954 0.358,-1.98798 0.72776,-3.89236 0.8217,-4.23194 0.24084,-0.87079 5.1116,-2.22252 8.0085,-2.22252 2.98711,0 3.26601,0.53987 2.26479,4.38385 -0.82039,3.1497 -1.948,5.18011 -3.12833,5.63304 -1.28304,0.49236 -1.38575,-1.04853 -0.26886,-4.03374 0.62297,-1.66503 0.86091,-2.96807 0.57434,-3.14519 -0.26913,-0.16628 -1.42409,-0.0507 -2.56664,0.25696 l -2.07735,0.55938 v 2.76568 c 0,2.75062 1.69077,9.29459 2.5365,9.81726 0.24367,0.15066 1.1445,0.0293 2.00186,-0.2696 1.8785,-0.65485 5.52658,0.16042 5.97765,1.33593 0.46776,1.21893 -0.21314,2.42055 -1.15912,2.04557 -2.04309,-0.80989 -4.11995,-0.82474 -5.63682,-0.0404 -1.92591,0.99594 -1.91168,0.99492 -2.56175,0.18364 z"
       id="path850" />
  </g>
</svg>
