<?xml version="1.0" encoding="UTF-8" standalone="no"?>
<!-- Created with Inkscape (http://www.inkscape.org/) -->

<svg
   width="32mm"
   height="32mm"
   viewBox="0 0 32 31.999998"
   version="1.1"
   id="svg1891"
   inkscape:version="1.2.2 (732a01da63, 2022-12-09)"
   sodipodi:docname="letter_w.svg"
   xmlns:inkscape="http://www.inkscape.org/namespaces/inkscape"
   xmlns:sodipodi="http://sodipodi.sourceforge.net/DTD/sodipodi-0.dtd"
   xmlns="http://www.w3.org/2000/svg"
   xmlns:svg="http://www.w3.org/2000/svg">
  <sodipodi:namedview
     id="namedview1893"
     pagecolor="#ffffff"
     bordercolor="#666666"
     borderopacity="1.0"
     inkscape:showpageshadow="2"
     inkscape:pageopacity="0.0"
     inkscape:pagecheckerboard="0"
     inkscape:deskcolor="#d1d1d1"
     inkscape:document-units="mm"
     showgrid="false"
     inkscape:zoom="0.86858165"
     inkscape:cx="-269.98038"
     inkscape:cy="324.66723"
     inkscape:window-width="1920"
     inkscape:window-height="1129"
     inkscape:window-x="1912"
     inkscape:window-y="-8"
     inkscape:window-maximized="1"
     inkscape:current-layer="layer1" />
  <defs
     id="defs1888" />
  <g
     inkscape:label="Layer 1"
     inkscape:groupmode="layer"
     id="layer1"
     transform="translate(-35.548344,-62.721406)">
    <path
       style="fill:#000000;stroke-width:0.677399"
       d="m 51.181753,91.722122 c 0,-0.276909 1.090674,-2.087075 2.423717,-4.022596 2.615255,-3.797232 3.45843,-7.447892 2.679358,-11.600702 -0.428051,-2.281698 -0.580421,-2.441365 -1.339354,-1.403466 -0.534326,0.730734 -0.737818,2.404784 -0.541131,4.451715 0.525685,5.470944 -2.67199,9.774804 -4.594087,6.183334 -0.407971,-0.7623 -2.248998,-2.313412 -4.091178,-3.446916 -1.842176,-1.133502 -3.174989,-2.343136 -2.961804,-2.688076 0.213192,-0.34494 1.565562,-1.228111 3.005285,-1.9626 3.458504,-1.764399 3.728449,-2.359632 2.104439,-4.640346 -1.03565,-1.454435 -1.17779,-2.111943 -0.584756,-2.704976 1.094274,-1.094274 2.219573,-0.976827 3.308519,0.345306 0.824037,1.000497 0.968184,0.788793 1.268394,-1.862848 0.485602,-4.289179 2.077712,-3.961275 5.094941,1.049329 4.518334,7.50344 4.540723,12.616699 0.08364,19.100758 -1.587522,2.309486 -2.78439,3.34014 -4.054233,3.491208 -0.990957,0.117899 -1.801742,-0.01229 -1.801742,-0.289124 z m 0,-11.32811 c 0,-1.279959 -0.653148,-1.773186 -1.777013,-1.341917 -0.742083,0.284764 -0.786189,0.589195 -0.189535,1.308124 0.986825,1.189054 1.966543,1.205888 1.966543,0.03379 z"
       id="path1714" />
  </g>
</svg>
