<?xml version="1.0" encoding="UTF-8" standalone="no"?>
<!-- Created with Inkscape (http://www.inkscape.org/) -->

<svg
   width="32mm"
   height="32mm"
   viewBox="0 0 31.999999 32.000001"
   version="1.1"
   id="svg2042"
   inkscape:version="1.2.2 (732a01da63, 2022-12-09)"
   sodipodi:docname="letter_x.svg"
   xmlns:inkscape="http://www.inkscape.org/namespaces/inkscape"
   xmlns:sodipodi="http://sodipodi.sourceforge.net/DTD/sodipodi-0.dtd"
   xmlns="http://www.w3.org/2000/svg"
   xmlns:svg="http://www.w3.org/2000/svg">
  <sodipodi:namedview
     id="namedview2044"
     pagecolor="#ffffff"
     bordercolor="#666666"
     borderopacity="1.0"
     inkscape:showpageshadow="2"
     inkscape:pageopacity="0.0"
     inkscape:pagecheckerboard="0"
     inkscape:deskcolor="#d1d1d1"
     inkscape:document-units="mm"
     showgrid="false"
     inkscape:zoom="0.86858165"
     inkscape:cx="-260.76996"
     inkscape:cy="324.66723"
     inkscape:window-width="1920"
     inkscape:window-height="1129"
     inkscape:window-x="1912"
     inkscape:window-y="-8"
     inkscape:window-maximized="1"
     inkscape:current-layer="layer1" />
  <defs
     id="defs2039" />
  <g
     inkscape:label="Layer 1"
     inkscape:groupmode="layer"
     id="layer1"
     transform="translate(-33.556121,-62.722168)">
    <path
       style="fill:#000000;stroke-width:0.677498"
       d="m 46.193646,89.918133 c -1.155782,-1.402164 -2.10142,-2.778262 -2.10142,-3.057998 0,-0.279735 -0.77345,-0.156198 -1.718774,0.274515 -1.426363,0.649894 -1.916223,0.58193 -2.879369,-0.399488 -1.097647,-1.118469 -1.056647,-1.266475 0.755928,-2.728802 1.846325,-1.489559 1.887585,-1.653662 1.126431,-4.480369 -1.059156,-3.933407 -1.483536,-8.664581 -0.982015,-10.947983 0.315136,-1.434807 0.986445,-2.026936 2.900786,-2.558637 3.276246,-0.909962 8.676678,-0.823759 11.636993,0.185747 4.018,1.370206 3.418519,5.759232 -1.434723,10.504173 -2.462901,2.407945 -3.420322,2.641497 -4.667607,1.138607 -0.711219,-0.856967 -0.329576,-1.505097 2.362412,-4.011995 1.765868,-1.644451 3.076857,-3.394853 2.913313,-3.889781 -0.532654,-1.611954 -8.272744,-1.85009 -9.820686,-0.302146 -0.635475,0.635473 -0.401155,5.339961 0.414814,8.328274 0.759722,2.782329 0.808013,2.818283 2.957312,2.201871 4.465076,-1.280566 12.695153,0.0064 12.695153,1.985127 0,1.589943 -3.748594,5.979092 -6.69384,7.837681 -4.376397,2.761708 -5.129871,2.753755 -7.464708,-0.07882 z m 6.731655,-3.52957 c 1.290109,-1.081526 2.152587,-2.163807 1.91662,-2.405072 -0.775134,-0.792531 -7.362201,0.425735 -7.362201,1.361625 0,0.936354 1.80121,3.009856 2.614605,3.009856 0.266928,0 1.540867,-0.884886 2.830976,-1.966409 z"
       id="path1716" />
  </g>
</svg>
