<?xml version="1.0" encoding="UTF-8" standalone="no"?>
<!-- Created with Inkscape (http://www.inkscape.org/) -->

<svg
   width="32mm"
   height="32mm"
   viewBox="0 0 32.000002 31.999999"
   version="1.1"
   id="svg3131"
   inkscape:version="1.2.2 (732a01da63, 2022-12-09)"
   sodipodi:docname="letter_d.svg"
   xmlns:inkscape="http://www.inkscape.org/namespaces/inkscape"
   xmlns:sodipodi="http://sodipodi.sourceforge.net/DTD/sodipodi-0.dtd"
   xmlns="http://www.w3.org/2000/svg"
   xmlns:svg="http://www.w3.org/2000/svg">
  <sodipodi:namedview
     id="namedview3133"
     pagecolor="#ffffff"
     bordercolor="#666666"
     borderopacity="1.0"
     inkscape:showpageshadow="2"
     inkscape:pageopacity="0.0"
     inkscape:pagecheckerboard="0"
     inkscape:deskcolor="#d1d1d1"
     inkscape:document-units="mm"
     showgrid="false"
     inkscape:zoom="0.84541947"
     inkscape:cx="-285.65701"
     inkscape:cy="334.74507"
     inkscape:window-width="1920"
     inkscape:window-height="1129"
     inkscape:window-x="1912"
     inkscape:window-y="-8"
     inkscape:window-maximized="1"
     inkscape:current-layer="layer1" />
  <defs
     id="defs3128" />
  <g
     inkscape:label="Layer 1"
     inkscape:groupmode="layer"
     id="layer1"
     transform="translate(-35.649117,-60.235041)">
    <path
       style="fill:#000000;stroke-width:0.64296"
       d="M 54.009055,87.321347 C 50.760529,84.386499 47.35753,83.01464 42.992804,82.880339 c -3.00466,-0.09244 -3.53872,-0.292512 -3.53872,-1.32563 0,-1.802391 2.889627,-2.312189 7.228525,-1.275283 2.035993,0.486559 3.879938,0.89496 4.097657,0.907557 0.217712,0.01264 -0.143934,-1.613337 -0.8037,-3.613185 -0.659754,-1.999847 -1.199552,-4.89317 -1.199552,-6.429604 0,-1.941618 -0.269604,-2.793519 -0.884073,-2.793519 -0.486239,0 -1.775499,-0.178296 -2.865022,-0.39619 -1.940971,-0.388196 -1.974565,-0.352508 -1.664459,1.768142 0.381918,2.611743 -0.466591,4.120159 -1.989029,3.535947 -0.799729,-0.306886 -1.01067,-0.904892 -0.767642,-2.176214 0.184322,-0.964174 -0.09521,-3.020535 -0.621162,-4.569692 -1.266231,-3.7296 -0.496921,-4.449132 2.902627,-2.71481 2.814671,1.435936 4.998403,1.678116 6.510155,0.721986 1.729479,-1.093833 2.593406,0.536573 2.593406,4.894281 0,4.676049 1.62794,10.142736 4.57601,15.366428 1.816191,3.218115 1.990475,4.787821 0.531582,4.787821 -0.331739,0 -1.722398,-1.011162 -3.090352,-2.247027 z m 1.841561,-10.287978 c -1.610518,-4.235982 0.340966,-10.441222 3.724403,-11.842687 2.561446,-1.060986 4.311568,-0.688179 4.311568,0.918436 0,0.839049 -0.501655,1.348303 -1.4625,1.48465 -2.376528,0.337238 -3.511631,2.776756 -3.259687,7.005589 0.205124,3.44304 0.114846,3.732349 -1.224161,3.92253 -1.068415,0.151759 -1.613666,-0.236666 -2.089623,-1.488518 z"
       id="path3099" />
  </g>
</svg>
