<?xml version="1.0" encoding="UTF-8" standalone="no"?>
<!-- Created with Inkscape (http://www.inkscape.org/) -->

<svg
   width="32mm"
   height="32mm"
   viewBox="0 0 31.999999 31.999999"
   version="1.1"
   id="svg2840"
   inkscape:version="1.2.2 (732a01da63, 2022-12-09)"
   sodipodi:docname="letter_c.svg"
   xmlns:inkscape="http://www.inkscape.org/namespaces/inkscape"
   xmlns:sodipodi="http://sodipodi.sourceforge.net/DTD/sodipodi-0.dtd"
   xmlns="http://www.w3.org/2000/svg"
   xmlns:svg="http://www.w3.org/2000/svg">
  <sodipodi:namedview
     id="namedview2842"
     pagecolor="#ffffff"
     bordercolor="#666666"
     borderopacity="1.0"
     inkscape:showpageshadow="2"
     inkscape:pageopacity="0.0"
     inkscape:pagecheckerboard="0"
     inkscape:deskcolor="#d1d1d1"
     inkscape:document-units="mm"
     showgrid="false"
     inkscape:zoom="0.86858165"
     inkscape:cx="-418.49836"
     inkscape:cy="370.71932"
     inkscape:window-width="1920"
     inkscape:window-height="1129"
     inkscape:window-x="1912"
     inkscape:window-y="-8"
     inkscape:window-maximized="1"
     inkscape:current-layer="layer1" />
  <defs
     id="defs2837" />
  <g
     inkscape:label="Layer 1"
     inkscape:groupmode="layer"
     id="layer1"
     transform="translate(-75.020394,-50.763135)">
    <path
       style="font-variation-settings:normal;vector-effect:none;fill:#000000;fill-opacity:1;stroke-width:0.667368;stroke-linecap:butt;stroke-linejoin:miter;stroke-miterlimit:4;stroke-dasharray:none;stroke-dashoffset:0;stroke-opacity:1;-inkscape-stroke:none;stop-color:#000000"
       d="m 94.706888,79.259554 c -0.585057,-0.646491 -1.063746,-1.878982 -1.063746,-2.738868 0,-0.98264 -1.11997,-2.636559 -3.014878,-4.452192 -2.491366,-2.387143 -3.462189,-2.888763 -5.590918,-2.888763 -3.521691,0 -4.434173,-1.210176 -3.377111,-4.478912 1.297265,-4.011628 3.838724,-7.939134 6.40286,-9.894901 2.151354,-1.640923 2.462384,-1.709866 3.415248,-0.75702 1.562237,1.56225 1.893193,7.758116 0.552821,10.350088 -1.188577,2.29848 -1.843553,2.575483 -2.946698,1.246258 -0.518492,-0.624729 -0.441258,-1.667989 0.278012,-3.755702 0.547777,-1.589876 0.826899,-3.059722 0.620294,-3.266319 -0.603394,-0.603399 -2.1989,1.343996 -3.331734,4.066519 l -1.048335,2.51949 2.852338,1.224692 c 3.024942,1.298813 6.917089,4.838174 7.564902,6.879193 0.62892,1.981576 1.627413,0.673944 1.627413,-2.131279 0,-2.915886 0.891875,-3.867812 2.428784,-2.592292 1.28357,1.065262 0.80138,4.883291 -1.083292,8.577548 -1.548616,3.035503 -2.855213,3.673407 -4.28596,2.09246 z"
       id="path1726" />
  </g>
</svg>
