<?xml version="1.0" encoding="UTF-8" standalone="no"?>
<!-- Created with Inkscape (http://www.inkscape.org/) -->

<svg
   width="32mm"
   height="32mm"
   viewBox="0 0 31.999998 32.000001"
   version="1.1"
   id="svg5900"
   inkscape:version="1.2.2 (732a01da63, 2022-12-09)"
   sodipodi:docname="letterbad_06_number_3.svg"
   xmlns:inkscape="http://www.inkscape.org/namespaces/inkscape"
   xmlns:sodipodi="http://sodipodi.sourceforge.net/DTD/sodipodi-0.dtd"
   xmlns="http://www.w3.org/2000/svg"
   xmlns:svg="http://www.w3.org/2000/svg">
  <sodipodi:namedview
     id="namedview5902"
     pagecolor="#ffffff"
     bordercolor="#666666"
     borderopacity="1.0"
     inkscape:showpageshadow="2"
     inkscape:pageopacity="0.0"
     inkscape:pagecheckerboard="0"
     inkscape:deskcolor="#d1d1d1"
     inkscape:document-units="mm"
     showgrid="false"
     inkscape:zoom="0.84541947"
     inkscape:cx="-368.45615"
     inkscape:cy="295.71119"
     inkscape:window-width="1920"
     inkscape:window-height="1129"
     inkscape:window-x="1912"
     inkscape:window-y="-8"
     inkscape:window-maximized="1"
     inkscape:current-layer="layer1" />
  <defs
     id="defs5897" />
  <g
     inkscape:label="Layer 1"
     inkscape:groupmode="layer"
     id="layer1"
     transform="translate(-58.265091,-70.630946)">
    <path
       style="fill:#000000;stroke-width:0.690959"
       d="m 72.763941,99.283238 c -1.111969,-1.11197 -1.076092,-2.288402 0.09955,-3.264093 1.52419,-1.264967 3.301886,-0.156011 3.061534,1.909818 -0.231536,1.990032 -1.837353,2.677997 -3.161077,1.354275 z m 0.09151,-11.973773 c -0.547373,-1.426431 0.194792,-3.109319 1.37124,-3.109319 0.535436,0 1.360598,0.466396 1.83369,1.03644 0.686253,0.826882 0.686253,1.245997 0,2.072879 -0.473092,0.570041 -1.298254,1.03644 -1.83369,1.03644 -0.535436,0 -1.152495,-0.466399 -1.37124,-1.03644 z M 72.3774,76.310634 c -0.464035,-1.209259 1.384462,-3.356219 2.553999,-2.966374 0.430924,0.143633 0.783498,1.012587 0.783498,1.930987 0,1.946874 -2.669885,2.775151 -3.337497,1.035387 z"
       id="path4936" />
  </g>
</svg>
