<?xml version="1.0" encoding="UTF-8" standalone="no"?>
<!-- Created with Inkscape (http://www.inkscape.org/) -->

<svg
   width="32mm"
   height="32mm"
   viewBox="0 0 31.999999 32.000001"
   version="1.1"
   id="svg6962"
   inkscape:version="1.2.2 (732a01da63, 2022-12-09)"
   sodipodi:docname="letterbad_13_bad_A.svg"
   xmlns:inkscape="http://www.inkscape.org/namespaces/inkscape"
   xmlns:sodipodi="http://sodipodi.sourceforge.net/DTD/sodipodi-0.dtd"
   xmlns="http://www.w3.org/2000/svg"
   xmlns:svg="http://www.w3.org/2000/svg">
  <sodipodi:namedview
     id="namedview6964"
     pagecolor="#ffffff"
     bordercolor="#666666"
     borderopacity="1.0"
     inkscape:showpageshadow="2"
     inkscape:pageopacity="0.0"
     inkscape:pagecheckerboard="0"
     inkscape:deskcolor="#d1d1d1"
     inkscape:document-units="mm"
     showgrid="false"
     inkscape:zoom="0.84541947"
     inkscape:cx="-544.70002"
     inkscape:cy="250.76309"
     inkscape:window-width="1920"
     inkscape:window-height="1129"
     inkscape:window-x="1912"
     inkscape:window-y="-8"
     inkscape:window-maximized="1"
     inkscape:current-layer="layer1" />
  <defs
     id="defs6959" />
  <g
     inkscape:label="Layer 1"
     inkscape:groupmode="layer"
     id="layer1"
     transform="translate(-57.691768,-82.68451)">
    <path
       style="fill:#000000;stroke-width:0.43692"
       d="m 72.94627,111.57379 c 0.150934,-0.24423 0.457465,-0.33092 0.681167,-0.19268 0.606027,0.37455 0.493025,0.63673 -0.274437,0.63673 -0.374643,0 -0.55767,-0.19983 -0.40673,-0.44405 z m 9.639061,-4.17483 c -0.579035,-0.57903 -0.68659,-2.07474 -0.68659,-9.54814 V 88.989264 L 78.555913,88.706693 C 76.717358,88.551284 72.883378,88.42412 70.035958,88.42412 h -5.177127 l -0.01907,4.259978 c -0.0199,4.446611 -0.983803,14.365362 -1.440389,14.821952 -0.683126,0.68312 -1.057464,-2.60293 -1.306464,-11.468479 -0.200002,-7.121012 -0.136517,-9.779291 0.242599,-10.158409 0.577551,-0.577551 20.725951,-0.744829 21.573198,-0.179106 1.106493,0.738824 1.328557,2.547202 1.443331,11.753747 0.116437,9.340227 0.08926,9.701917 -0.763712,10.158407 -1.136212,0.60809 -1.187082,0.60267 -2.002993,-0.21325 z"
       id="path4950" />
  </g>
</svg>
