<?xml version="1.0" encoding="UTF-8" standalone="no"?>
<!-- Created with Inkscape (http://www.inkscape.org/) -->

<svg
   width="32mm"
   height="32mm"
   viewBox="0 0 32.000002 31.999999"
   version="1.1"
   id="svg7560"
   inkscape:version="1.2.2 (732a01da63, 2022-12-09)"
   sodipodi:docname="letterbad_16_bad_D.svg"
   xmlns:inkscape="http://www.inkscape.org/namespaces/inkscape"
   xmlns:sodipodi="http://sodipodi.sourceforge.net/DTD/sodipodi-0.dtd"
   xmlns="http://www.w3.org/2000/svg"
   xmlns:svg="http://www.w3.org/2000/svg">
  <sodipodi:namedview
     id="namedview7562"
     pagecolor="#ffffff"
     bordercolor="#666666"
     borderopacity="1.0"
     inkscape:showpageshadow="2"
     inkscape:pageopacity="0.0"
     inkscape:pagecheckerboard="0"
     inkscape:deskcolor="#d1d1d1"
     inkscape:document-units="mm"
     showgrid="false"
     inkscape:zoom="0.84541947"
     inkscape:cx="-409.85571"
     inkscape:cy="233.02042"
     inkscape:window-width="1920"
     inkscape:window-height="1129"
     inkscape:window-x="1912"
     inkscape:window-y="-8"
     inkscape:window-maximized="1"
     inkscape:current-layer="layer1" />
  <defs
     id="defs7557" />
  <g
     inkscape:label="Layer 1"
     inkscape:groupmode="layer"
     id="layer1"
     transform="translate(-68.747926,-86.992453)">
    <path
       style="fill:#000000;stroke-width:0.48937"
       d="m 94.716709,115.01377 c -0.30165,-0.74017 -0.653645,-5.37417 -0.78221,-10.29775 l -0.233751,-8.951999 -3.242993,0.143325 -3.242975,0.143325 -0.05308,8.886779 c -0.02922,4.88772 -0.187401,9.23702 -0.351662,9.66507 -0.375152,0.97763 -1.97414,1.01069 -2.765486,0.0572 -0.407335,-0.49081 -0.683848,-3.91275 -0.865736,-10.71377 l -0.267269,-9.992694 -1.763379,-0.291683 c -0.96985,-0.160434 -2.665311,-0.294109 -3.767684,-0.29707 l -2.004306,-0.0054 -0.314671,7.707577 c -0.35943,8.80403 -0.799262,13.33534 -1.294378,13.33534 -0.188307,0 -0.648207,-0.60559 -1.022009,-1.34576 -0.494015,-0.97819 -0.725917,-4.0608 -0.849029,-11.28584 -0.21505,-12.620702 -0.346483,-12.327744 5.390656,-12.015513 6.271342,0.341303 8.135986,0.658694 9.011118,1.533825 0.60119,0.601192 1.985773,0.859163 5.416685,1.009218 6.328809,0.2768 6.084127,-0.237321 5.887035,12.36946 -0.08582,5.48862 -0.334387,10.36469 -0.552435,10.83571 -0.589149,1.2727 -1.71024,1.03748 -2.332497,-0.48939 z"
       id="path4956" />
  </g>
</svg>
