<?xml version="1.0" encoding="UTF-8" standalone="no"?>
<!-- Created with Inkscape (http://www.inkscape.org/) -->

<svg
   width="32mm"
   height="32mm"
   viewBox="0 0 31.999999 31.999999"
   version="1.1"
   id="svg4051"
   inkscape:version="1.2.2 (732a01da63, 2022-12-09)"
   sodipodi:docname="letter_j.svg"
   xmlns:inkscape="http://www.inkscape.org/namespaces/inkscape"
   xmlns:sodipodi="http://sodipodi.sourceforge.net/DTD/sodipodi-0.dtd"
   xmlns="http://www.w3.org/2000/svg"
   xmlns:svg="http://www.w3.org/2000/svg">
  <sodipodi:namedview
     id="namedview4053"
     pagecolor="#ffffff"
     bordercolor="#666666"
     borderopacity="1.0"
     inkscape:showpageshadow="2"
     inkscape:pageopacity="0.0"
     inkscape:pagecheckerboard="0"
     inkscape:deskcolor="#d1d1d1"
     inkscape:document-units="mm"
     showgrid="false"
     inkscape:zoom="0.84541947"
     inkscape:cx="-381.46744"
     inkscape:cy="263.77438"
     inkscape:window-width="1920"
     inkscape:window-height="1129"
     inkscape:window-x="1912"
     inkscape:window-y="-8"
     inkscape:window-maximized="1"
     inkscape:current-layer="layer1" />
  <defs
     id="defs4048" />
  <g
     inkscape:label="Layer 1"
     inkscape:groupmode="layer"
     id="layer1"
     transform="translate(-61.751747,-79.001282)">
    <path
       style="fill:#000000;stroke-width:0.637372"
       d="m 85.852744,106.52174 c -0.906117,-0.90449 -2.19574,-1.13862 -6.271646,-1.13862 -5.05028,0 -5.146966,-0.0301 -6.147495,-1.91212 -0.559086,-1.05167 -1.367018,-2.91573 -1.795405,-4.142354 -0.692909,-1.984041 -0.997543,-2.207297 -2.759687,-2.02246 -1.790623,0.187828 -2.100956,-0.057 -3.232324,-2.550065 -1.498576,-3.302237 -1.647896,-7.076328 -0.323462,-8.175512 1.29929,-1.078315 3.052683,0.326712 2.516386,2.016428 -0.633123,1.994795 0.319246,4.994678 1.585656,4.994678 0.939281,0 1.204311,-0.771834 1.552889,-4.522385 0.521607,-5.612282 1.260864,-7.21675 2.916787,-6.330526 1.023179,0.54759 1.140072,1.169008 0.840774,4.469715 -0.1912,2.108535 -0.13695,3.833701 0.120545,3.833701 0.679695,0 3.988391,-2.375701 7.883743,-5.660666 3.691779,-3.113292 4.543547,-2.94894 4.5626,0.880368 0.0053,1.051666 0.925102,3.697512 2.04415,5.87966 1.119051,2.182146 1.890193,4.111984 1.713652,4.288525 -0.176553,0.176553 -0.988318,0.398875 -1.803945,0.494072 -1.163698,0.135818 -1.786511,-0.392912 -2.892951,-2.455971 -0.775495,-1.445983 -1.578262,-3.272529 -1.783928,-4.058993 -0.36783,-1.40659 -0.418807,-1.393581 -3.122723,0.796914 -1.511831,1.224763 -3.654737,2.686598 -4.762008,3.248524 l -2.013224,1.02168 0.899943,2.990281 c 0.494969,1.644656 1.002618,3.092956 1.128111,3.218446 0.125483,0.12548 1.034816,-0.0785 2.020723,-0.45336 0.985907,-0.37484 2.603183,-0.50348 3.593949,-0.28588 2.556519,0.56151 2.230563,-0.52697 -0.748101,-2.498153 -2.737745,-1.811755 -2.972437,-2.265939 -1.784644,-3.453732 1.102528,-1.102528 2.286832,-0.947913 4.430333,0.578396 2.767723,1.970792 5.072782,5.987069 5.206528,9.071729 0.0959,2.21194 -0.09624,2.68142 -1.159799,2.83374 -0.701111,0.1004 -1.788047,-0.32982 -2.415415,-0.95606 z"
       id="path3111" />
  </g>
</svg>
