<?xml version="1.0" encoding="UTF-8" standalone="no"?>
<!-- Created with Inkscape (http://www.inkscape.org/) -->

<svg
   width="32mm"
   height="32mm"
   viewBox="0 0 31.999999 31.999999"
   version="1.1"
   id="svg7871"
   inkscape:version="1.2.2 (732a01da63, 2022-12-09)"
   sodipodi:docname="letterbad_18_bad_F.svg"
   xmlns:inkscape="http://www.inkscape.org/namespaces/inkscape"
   xmlns:sodipodi="http://sodipodi.sourceforge.net/DTD/sodipodi-0.dtd"
   xmlns="http://www.w3.org/2000/svg"
   xmlns:svg="http://www.w3.org/2000/svg">
  <sodipodi:namedview
     id="namedview7873"
     pagecolor="#ffffff"
     bordercolor="#666666"
     borderopacity="1.0"
     inkscape:showpageshadow="2"
     inkscape:pageopacity="0.0"
     inkscape:pagecheckerboard="0"
     inkscape:deskcolor="#d1d1d1"
     inkscape:document-units="mm"
     showgrid="false"
     inkscape:zoom="0.84541947"
     inkscape:cx="-296.30262"
     inkscape:cy="334.74507"
     inkscape:window-width="1920"
     inkscape:window-height="1129"
     inkscape:window-x="1912"
     inkscape:window-y="-8"
     inkscape:window-maximized="1"
     inkscape:current-layer="layer1" />
  <defs
     id="defs7868" />
  <g
     inkscape:label="Layer 1"
     inkscape:groupmode="layer"
     id="layer1"
     transform="translate(-38.989363,-60.28688)">
    <path
       style="fill:#000000;stroke-width:0.503986"
       d="m 42.564726,89.20056 c -0.142672,-0.230809 -0.29142,-6.043788 -0.330603,-12.917726 -0.05695,-9.988726 0.06496,-12.584451 0.607604,-12.928291 0.952359,-0.603552 1.253304,-0.555184 2.154804,0.346329 0.66553,0.665524 0.793725,2.375548 0.80285,10.709725 l 0.01143,9.917742 2.38306,-2.5624 c 1.310697,-1.409329 3.08842,-3.393777 3.950491,-4.409891 0.86207,-1.016114 1.900471,-1.847479 2.307534,-1.847479 1.369556,0 5.459575,3.115869 9.373989,7.141327 3.688347,3.79298 4.758711,5.839628 3.307095,6.323512 -0.318736,0.10629 -3.13126,-1.916014 -6.250063,-4.493882 l -5.670536,-4.687071 -4.889897,4.913879 c -3.671737,3.689738 -5.214747,4.913879 -6.19387,4.913879 -0.717188,0 -1.420681,-0.188769 -1.563334,-0.419653 z"
       id="path4960" />
  </g>
</svg>
