<?xml version="1.0" encoding="UTF-8" standalone="no"?>
<!-- Created with Inkscape (http://www.inkscape.org/) -->

<svg
   width="32mm"
   height="32mm"
   viewBox="0 0 31.999999 32.000001"
   version="1.1"
   id="svg726"
   xml:space="preserve"
   inkscape:version="1.2.2 (732a01da63, 2022-12-09)"
   sodipodi:docname="letter_o.svg"
   xmlns:inkscape="http://www.inkscape.org/namespaces/inkscape"
   xmlns:sodipodi="http://sodipodi.sourceforge.net/DTD/sodipodi-0.dtd"
   xmlns="http://www.w3.org/2000/svg"
   xmlns:svg="http://www.w3.org/2000/svg"><sodipodi:namedview
     id="namedview728"
     pagecolor="#ffffff"
     bordercolor="#666666"
     borderopacity="1.0"
     inkscape:showpageshadow="2"
     inkscape:pageopacity="0.0"
     inkscape:pagecheckerboard="0"
     inkscape:deskcolor="#d1d1d1"
     inkscape:document-units="mm"
     showgrid="false"
     inkscape:zoom="0.82492985"
     inkscape:cx="-344.87781"
     inkscape:cy="101.82684"
     inkscape:window-width="1920"
     inkscape:window-height="1129"
     inkscape:window-x="1912"
     inkscape:window-y="-8"
     inkscape:window-maximized="1"
     inkscape:current-layer="layer1" /><defs
     id="defs723" /><g
     inkscape:label="Layer 1"
     inkscape:groupmode="layer"
     id="layer1"
     transform="translate(-98.590099,-125.75893)"><path
       style="fill:#000000;stroke-width:0.654619"
       d="m 119.62555,154.62882 c -1.40992,-2.48303 -2.49596,-7.82912 -2.11137,-10.39358 l 0.44072,-2.939 -2.50068,0.47195 c -1.37536,0.25956 -2.87561,0.47318 -3.33385,0.47466 -0.95604,0.002 -1.79027,2.64502 -1.15818,3.66777 0.27825,0.45019 0.96183,0.33156 1.99672,-0.34653 0.86549,-0.5671 1.88115,-0.84102 2.25702,-0.60872 1.16548,0.7203 0.7565,2.1105 -0.94972,3.22848 -0.89822,0.58852 -2.06152,2.09531 -2.58508,3.34837 -1.81573,4.34563 -3.6111,2.31611 -3.71019,-4.19404 -0.0648,-4.26245 -0.24764,-4.87607 -1.96314,-6.59157 -1.59378,-1.59378 -1.89162,-2.42005 -1.89162,-5.24759 0,-3.60457 1.54736,-7.46734 2.82054,-7.04107 0.49362,0.16527 0.77988,1.77983 0.77988,4.3987 0,2.29114 0.30531,4.24258 0.68417,4.37285 0.37632,0.1294 1.30836,-1.24208 2.07122,-3.04772 1.01606,-2.40495 1.74188,-3.28295 2.71392,-3.28295 2.14302,0 2.23721,1.09902 0.36764,4.28919 -3.53223,6.02729 1.18542,5.25061 6.03437,-0.99347 3.0939,-3.98406 5.47609,-5.15854 5.47609,-2.69987 0,0.68776 -0.88349,3.11803 -1.96331,5.40061 -2.26004,4.7773 -2.54549,8.89026 -0.90208,12.99755 0.99585,2.48888 0.98951,2.7355 -0.10144,3.94099 -1.22748,1.35635 -2.00995,1.60803 -2.47161,0.79499 z"
       id="path742" /></g></svg>
