<?xml version="1.0" encoding="UTF-8" standalone="no"?>
<!-- Created with Inkscape (http://www.inkscape.org/) -->

<svg
   width="32mm"
   height="32mm"
   viewBox="0 0 32.000001 31.999999"
   version="1.1"
   id="svg3589"
   inkscape:version="1.2.2 (732a01da63, 2022-12-09)"
   sodipodi:docname="letter_g.svg"
   xmlns:inkscape="http://www.inkscape.org/namespaces/inkscape"
   xmlns:sodipodi="http://sodipodi.sourceforge.net/DTD/sodipodi-0.dtd"
   xmlns="http://www.w3.org/2000/svg"
   xmlns:svg="http://www.w3.org/2000/svg">
  <sodipodi:namedview
     id="namedview3591"
     pagecolor="#ffffff"
     bordercolor="#666666"
     borderopacity="1.0"
     inkscape:showpageshadow="2"
     inkscape:pageopacity="0.0"
     inkscape:pagecheckerboard="0"
     inkscape:deskcolor="#d1d1d1"
     inkscape:document-units="mm"
     showgrid="false"
     inkscape:zoom="0.84541947"
     inkscape:cx="-315.22813"
     inkscape:cy="372.5961"
     inkscape:window-width="1920"
     inkscape:window-height="1129"
     inkscape:window-x="1912"
     inkscape:window-y="-8"
     inkscape:window-maximized="1"
     inkscape:current-layer="layer1" />
  <defs
     id="defs3586" />
  <g
     inkscape:label="Layer 1"
     inkscape:groupmode="layer"
     id="layer1"
     transform="translate(-43.677783,-50.230997)">
    <path
       style="fill:#000000;stroke-width:0.611393"
       d="m 60.474912,78.682916 c -0.420333,-0.168132 -0.764242,-1.137588 -0.764242,-2.15434 0,-1.399279 -0.224908,-1.762342 -0.925225,-1.493603 -1.613884,0.619305 -6.349925,1.108791 -6.977195,0.721118 -0.359932,-0.222459 -0.397618,-0.919929 -0.09342,-1.729037 0.554945,-1.476077 -1.147397,-5.626712 -2.491499,-6.074747 -0.942339,-0.314114 -0.211575,-2.317091 0.838704,-2.298866 1.50835,0.02618 3.597132,2.194321 4.427051,4.595268 0.696418,2.014721 1.077456,2.386422 2.265181,2.209663 1.743807,-0.259514 2.95641,-1.191792 2.95641,-2.272955 0,-1.631244 -3.188093,-9.346896 -4.399319,-10.646994 -1.071051,-1.149641 -1.774633,-1.311365 -4.938322,-1.135127 -4.483265,0.24975 -5.385668,-0.853616 -1.892018,-2.313356 2.626939,-1.097605 7.285206,-0.770514 8.664088,0.60837 0.45444,0.454441 1.747978,3.133666 2.874529,5.953834 l 2.048276,5.12758 1.095391,-2.445575 c 0.695905,-1.553686 1.119115,-4.060448 1.160453,-6.873575 0.03579,-2.435398 0.224977,-4.587923 0.420439,-4.783385 0.552438,-0.552428 3.658728,1.272921 5.438329,3.19571 2.098789,2.267698 3.154816,4.369445 2.739383,5.452055 -0.617486,1.609169 -2.172272,0.88697 -3.439942,-1.597854 -0.692264,-1.356943 -1.486733,-2.326204 -1.765506,-2.153915 -0.278772,0.172292 -0.642674,1.518155 -0.808657,2.990815 -0.165914,1.472658 -1.075784,4.299029 -2.021771,6.280823 -0.978958,2.050908 -1.871626,5.162981 -2.072014,7.22361 -0.344318,3.540677 -0.792446,4.233144 -2.339099,3.614483 z"
       id="path3105" />
  </g>
</svg>
