<?xml version="1.0" encoding="UTF-8" standalone="no"?>
<!-- Created with Inkscape (http://www.inkscape.org/) -->

<svg
   width="32mm"
   height="32mm"
   viewBox="0 0 32 32"
   version="1.1"
   id="svg752"
   xml:space="preserve"
   inkscape:version="1.2.2 (732a01da63, 2022-12-09)"
   sodipodi:docname="letter_p.svg"
   xmlns:inkscape="http://www.inkscape.org/namespaces/inkscape"
   xmlns:sodipodi="http://sodipodi.sourceforge.net/DTD/sodipodi-0.dtd"
   xmlns="http://www.w3.org/2000/svg"
   xmlns:svg="http://www.w3.org/2000/svg"><sodipodi:namedview
     id="namedview754"
     pagecolor="#ffffff"
     bordercolor="#666666"
     borderopacity="1.0"
     inkscape:showpageshadow="2"
     inkscape:pageopacity="0.0"
     inkscape:pagecheckerboard="0"
     inkscape:deskcolor="#d1d1d1"
     inkscape:document-units="mm"
     showgrid="false"
     inkscape:zoom="0.84809203"
     inkscape:cx="-318.95123"
     inkscape:cy="34.194402"
     inkscape:window-width="1920"
     inkscape:window-height="1129"
     inkscape:window-x="1912"
     inkscape:window-y="-8"
     inkscape:window-maximized="1"
     inkscape:current-layer="layer1" /><defs
     id="defs749" /><g
     inkscape:label="Layer 1"
     inkscape:groupmode="layer"
     id="layer1"
     transform="translate(-91.947611,-140.15116)"><path
       style="fill:#000000;stroke-width:0.654292"
       d="m 99.427432,168.92685 c -0.267928,-0.43353 0.415495,-1.5596 1.607028,-2.64788 1.64882,-1.50596 5.2786,-8.00419 5.2786,-9.45003 0,-0.16965 -1.28889,-0.3085 -2.8642,-0.3085 -4.437484,0 -4.781697,-0.97606 -2.37928,-6.74694 1.11786,-2.68522 2.63188,-5.42467 3.36448,-6.08768 1.29606,-1.17291 1.35262,-1.17051 2.09622,0.0888 0.42033,0.7118 1.40525,3.06112 2.18873,5.22072 l 1.42452,3.92653 2.90459,-0.20896 c 2.3099,-0.16618 2.99676,0.0314 3.35474,0.96416 0.26987,0.70328 0.0856,1.44199 -0.46007,1.8446 -1.73717,1.28174 -2.54139,3.65226 -2.10843,6.21489 0.28201,1.66915 0.15654,2.66544 -0.37717,2.99527 -1.36972,0.84656 -2.56408,-1.72607 -2.56408,-5.52306 0,-4.0109 -0.61956,-3.83077 -2.00566,0.58306 -1.75188,5.57864 -7.95559,11.56916 -9.460018,9.13494 z m 6.876698,-16.49573 c -0.0161,-1.47643 -0.7883,-3.7622 -1.27094,-3.7622 -0.51201,0 -1.99159,2.93939 -1.99159,3.95655 0,0.34294 0.73608,0.62352 1.63573,0.62352 0.89966,0 1.63171,-0.36804 1.6268,-0.81787 z"
       id="path768" /></g></svg>
