<?xml version="1.0" encoding="UTF-8" standalone="no"?>
<!-- Created with Inkscape (http://www.inkscape.org/) -->

<svg
   width="32mm"
   height="32mm"
   viewBox="0 0 32 32"
   version="1.1"
   id="svg1001"
   inkscape:version="1.2.2 (732a01da63, 2022-12-09)"
   sodipodi:docname="letter_r.svg"
   xmlns:inkscape="http://www.inkscape.org/namespaces/inkscape"
   xmlns:sodipodi="http://sodipodi.sourceforge.net/DTD/sodipodi-0.dtd"
   xmlns="http://www.w3.org/2000/svg"
   xmlns:svg="http://www.w3.org/2000/svg">
  <sodipodi:namedview
     id="namedview1003"
     pagecolor="#ffffff"
     bordercolor="#666666"
     borderopacity="1.0"
     inkscape:showpageshadow="2"
     inkscape:pageopacity="0.0"
     inkscape:pagecheckerboard="0"
     inkscape:deskcolor="#d1d1d1"
     inkscape:document-units="mm"
     showgrid="false"
     inkscape:zoom="0.86858165"
     inkscape:cx="-478.36608"
     inkscape:cy="216.44482"
     inkscape:window-width="1920"
     inkscape:window-height="1129"
     inkscape:window-x="1912"
     inkscape:window-y="-8"
     inkscape:window-maximized="1"
     inkscape:current-layer="layer1" />
  <defs
     id="defs998" />
  <g
     inkscape:label="Layer 1"
     inkscape:groupmode="layer"
     id="layer1"
     transform="translate(-91.097523,-91.486782)">
    <path
       style="fill:#000000;stroke-width:0.655609"
       d="m 97.539995,120.20616 c -3.313912,-1.26871 -3.739663,-1.98901 -2.543237,-4.30264 1.329118,-2.57022 1.325376,-5.61778 -0.0099,-7.65485 -1.00667,-1.53637 -0.979487,-1.6318 0.679835,-2.38784 2.879734,-1.31209 3.974592,0.43625 3.974592,6.34687 0,5.52762 0.182125,5.72935 4.623575,5.12058 3.70227,-0.50745 6.19399,-3.13964 6.19399,-6.54314 0,-3.93951 -0.88932,-4.82367 -4.85174,-4.82367 -3.8643,0 -6.949227,-1.7502 -6.949227,-3.94255 0,-1.85899 0.978199,-2.080797 2.812687,-0.63779 1.97911,1.55678 4.399,1.72003 4.399,0.29677 0,-0.55304 -1.01951,-1.60705 -2.26557,-2.342245 -2.27572,-1.342711 -3.41641,-3.281887 -2.65513,-4.513685 0.90535,-1.464862 3.02756,-0.491436 5.70384,2.61625 1.5525,1.80275 3.15649,3.27787 3.56442,3.27805 0.40794,1.8e-4 1.52928,-1.032265 2.4919,-2.294314 0.96261,-1.262048 2.19405,-2.294634 2.73651,-2.294634 1.2194,0 4.30433,6.545648 4.42892,9.397368 0.0731,1.67227 -0.18907,2.11561 -1.34815,2.28055 -1.18709,0.16892 -1.56303,-0.25644 -2.14856,-2.43085 -0.86808,-3.22396 -1.48587,-3.67383 -2.89968,-2.11159 -0.86405,0.95477 -0.95005,1.57125 -0.41542,2.97747 1.94185,5.10746 -0.055,11.40171 -4.26731,13.45021 -2.56388,1.2469 -8.62108,1.5244 -11.255879,0.51568 z m 5.279795,-8.04082 c -0.48212,-1.25636 1.55532,-3.6108 2.73341,-3.15872 1.12143,0.43032 1.6909,1.92893 1.20961,3.18314 -0.49446,1.28854 -3.4462,1.27028 -3.94302,-0.0245 z"
       id="path844" />
  </g>
</svg>
