<?xml version="1.0" encoding="UTF-8" standalone="no"?>
<!-- Created with Inkscape (http://www.inkscape.org/) -->

<svg
   width="32mm"
   height="32mm"
   viewBox="0 0 32.000001 32.000001"
   version="1.1"
   id="svg6509"
   inkscape:version="1.2.2 (732a01da63, 2022-12-09)"
   sodipodi:docname="letterbad_10_number_7.svg"
   xmlns:inkscape="http://www.inkscape.org/namespaces/inkscape"
   xmlns:sodipodi="http://sodipodi.sourceforge.net/DTD/sodipodi-0.dtd"
   xmlns="http://www.w3.org/2000/svg"
   xmlns:svg="http://www.w3.org/2000/svg">
  <sodipodi:namedview
     id="namedview6511"
     pagecolor="#ffffff"
     bordercolor="#666666"
     borderopacity="1.0"
     inkscape:showpageshadow="2"
     inkscape:pageopacity="0.0"
     inkscape:pagecheckerboard="0"
     inkscape:deskcolor="#d1d1d1"
     inkscape:document-units="mm"
     showgrid="false"
     inkscape:zoom="0.84541947"
     inkscape:cx="-400.39296"
     inkscape:cy="295.71119"
     inkscape:window-width="1920"
     inkscape:window-height="1129"
     inkscape:window-x="1912"
     inkscape:window-y="-8"
     inkscape:window-maximized="1"
     inkscape:current-layer="layer1" />
  <defs
     id="defs6506" />
  <g
     inkscape:label="Layer 1"
     inkscape:groupmode="layer"
     id="layer1"
     transform="translate(-66.71474,-70.617747)">
    <path
       style="fill:#000000;stroke-width:0.689177"
       d="m 77.502306,98.802907 c -0.864263,-1.845116 0.01042,-24.070286 0.986972,-25.042409 0.448333,-0.446877 1.347499,-0.608224 1.998144,-0.358549 1.077697,0.413556 1.148677,1.564575 0.79745,12.934646 -0.288713,9.345745 -0.617486,12.627709 -1.308948,13.065982 -1.358205,0.860863 -1.844749,0.742913 -2.473618,-0.59967 z m 7.468808,-6.646473 c -0.61647,-0.742783 -0.539291,-1.218828 0.340183,-2.098299 1.514047,-1.514043 2.65142,-1.039787 2.918591,1.21696 0.170351,1.439729 -0.0745,1.842093 -1.121692,1.842093 -0.736863,0 -1.698543,-0.43234 -2.137082,-0.960754 z m -0.03621,-8.313594 c -1.10674,-1.333543 0.140918,-3.130862 2.173158,-3.130862 1.054124,0 1.293267,0.402817 1.121691,1.889348 -0.249797,2.164321 -1.986031,2.818537 -3.294849,1.241514 z"
       id="path4944" />
  </g>
</svg>
