<?xml version="1.0" encoding="UTF-8" standalone="no"?>
<!-- Created with Inkscape (http://www.inkscape.org/) -->

<svg
   width="32mm"
   height="32mm"
   viewBox="0 0 32.000001 32"
   version="1.1"
   id="svg8324"
   inkscape:version="1.2.2 (732a01da63, 2022-12-09)"
   sodipodi:docname="letterbad_21_bad_I.svg"
   xmlns:inkscape="http://www.inkscape.org/namespaces/inkscape"
   xmlns:sodipodi="http://sodipodi.sourceforge.net/DTD/sodipodi-0.dtd"
   xmlns="http://www.w3.org/2000/svg"
   xmlns:svg="http://www.w3.org/2000/svg">
  <sodipodi:namedview
     id="namedview8326"
     pagecolor="#ffffff"
     bordercolor="#666666"
     borderopacity="1.0"
     inkscape:showpageshadow="2"
     inkscape:pageopacity="0.0"
     inkscape:pagecheckerboard="0"
     inkscape:deskcolor="#d1d1d1"
     inkscape:document-units="mm"
     showgrid="false"
     inkscape:zoom="0.84541947"
     inkscape:cx="-472.54649"
     inkscape:cy="162.04973"
     inkscape:window-width="1920"
     inkscape:window-height="1129"
     inkscape:window-x="1912"
     inkscape:window-y="-8"
     inkscape:window-maximized="1"
     inkscape:current-layer="layer1" />
  <defs
     id="defs8321" />
  <g
     inkscape:label="Layer 1"
     inkscape:groupmode="layer"
     id="layer1"
     transform="translate(-85.357374,-106.17312)">
    <path
       style="fill:#000000;stroke-width:0.446271"
       d="m 95.790714,133.82258 c -2.209042,-0.14842 -4.242987,-0.41392 -4.519873,-0.58993 -0.313484,-0.19928 -0.624974,-2.91335 -0.825557,-7.19319 -0.315692,-6.736 -0.344106,-6.88321 -1.423691,-7.3751 -1.420021,-0.64699 -1.293906,-2.43383 0.186621,-2.64409 0.86097,-0.12228 1.00411,-0.4123 1.00411,-2.03449 0,-3.44528 -0.169108,-3.39031 11.396066,-3.70476 11.11152,-0.30212 12.44106,-0.10728 12.17181,1.78404 -0.13375,0.93925 -0.38493,0.98378 -7.05584,1.25064 -9.527663,0.38116 -12.941866,0.7928 -12.941866,1.56034 0,0.50646 1.714568,0.61743 9.540186,0.61743 8.07302,0 9.62848,0.10642 10.11434,0.69181 1.5712,1.89318 -3.10976,2.80695 -14.633975,2.85669 l -5.020551,0.0218 v 1.49339 c 0,0.82135 -0.12891,3.30941 -0.286459,5.52902 l -0.286455,4.03564 1.513703,0.34282 c 0.832536,0.18855 5.508847,0.46179 10.391807,0.60721 7.61566,0.22677 8.9446,0.37012 9.34582,1.00793 0.33883,0.53868 0.30605,0.93835 -0.11891,1.45039 -0.49446,0.59579 -1.68214,0.69547 -7.56074,0.63464 -3.83577,-0.0396 -8.781525,-0.19365 -10.990568,-0.34211 z"
       id="path4966" />
  </g>
</svg>
