<?xml version="1.0" encoding="UTF-8" standalone="no"?>
<!-- Created with Inkscape (http://www.inkscape.org/) -->

<svg
   width="32mm"
   height="32mm"
   viewBox="0 0 32 32"
   version="1.1"
   id="svg4353"
   inkscape:version="1.2.2 (732a01da63, 2022-12-09)"
   sodipodi:docname="letter_l.svg"
   xmlns:inkscape="http://www.inkscape.org/namespaces/inkscape"
   xmlns:sodipodi="http://sodipodi.sourceforge.net/DTD/sodipodi-0.dtd"
   xmlns="http://www.w3.org/2000/svg"
   xmlns:svg="http://www.w3.org/2000/svg">
  <sodipodi:namedview
     id="namedview4355"
     pagecolor="#ffffff"
     bordercolor="#666666"
     borderopacity="1.0"
     inkscape:showpageshadow="2"
     inkscape:pageopacity="0.0"
     inkscape:pagecheckerboard="0"
     inkscape:deskcolor="#d1d1d1"
     inkscape:document-units="mm"
     showgrid="false"
     inkscape:zoom="0.84541947"
     inkscape:cx="-311.6796"
     inkscape:cy="223.55766"
     inkscape:window-width="1920"
     inkscape:window-height="1129"
     inkscape:window-x="1912"
     inkscape:window-y="-8"
     inkscape:window-maximized="1"
     inkscape:current-layer="layer1" />
  <defs
     id="defs4350" />
  <g
     inkscape:label="Layer 1"
     inkscape:groupmode="layer"
     id="layer1"
     transform="translate(-43.183688,-89.376664)">
    <path
       style="fill:#000000;stroke-width:0.686662"
       d="m 64.906088,116.85477 c -1.486351,-2.08739 -6.780929,-4.62272 -8.426393,-4.03502 -1.242363,0.44373 -3.312078,-0.70437 -3.312078,-1.83725 0,-2.1202 6.363422,-1.92361 10.155441,0.31373 2.76578,1.63185 2.891162,1.64167 2.891162,0.22639 0,-1.38014 2.632863,-5.74603 3.465162,-5.74603 0.333574,0 0.943892,0.63043 1.356261,1.40094 0.597629,1.11669 0.452237,1.88235 -0.716563,3.77351 -0.992179,1.60537 -1.393334,3.20621 -1.2406,4.95069 0.192438,2.19793 0.0088,2.60907 -1.245397,2.78789 -0.993596,0.1417 -1.943694,-0.45394 -2.926995,-1.83486 z m -15.823376,-3.10804 c -1.677801,-3.51552 -2.095065,-5.28858 -2.095065,-8.90247 0,-3.90118 0.198122,-4.61868 1.462065,-5.295123 1.244143,-0.665846 1.679122,-0.524682 2.918319,0.947093 4.480934,5.32192 12.786199,4.71718 12.786199,-0.931015 0,-1.512834 -0.48833,-2.245837 -2.025891,-3.040937 -2.742352,-1.418128 -4.31123,-1.318464 -6.513407,0.41377 -1.543247,1.213919 -2.140342,1.332696 -3.525919,0.701386 -1.868172,-0.851197 -1.998456,-1.332224 -0.787883,-2.908953 1.418802,-1.847939 3.689247,-2.687151 7.26995,-2.687151 4.603059,0 6.686809,0.897839 8.326922,3.587868 2.586769,4.242695 1.181735,8.790352 -3.456966,11.189122 -2.814576,1.45547 -8.098674,1.29045 -10.766576,-0.33625 l -2.209814,-1.34738 0.385819,2.20828 c 0.212189,1.21455 1.073801,3.65922 1.914674,5.43259 1.010964,2.1321 1.326519,3.58587 0.931546,4.29165 -1.142375,2.04131 -2.531451,1.04104 -4.613973,-3.32248 z"
       id="path3115" />
  </g>
</svg>
