<?xml version="1.0" encoding="UTF-8" standalone="no"?>
<!-- Created with Inkscape (http://www.inkscape.org/) -->

<svg
   width="32mm"
   height="32mm"
   viewBox="0 0 32.000001 32.000001"
   version="1.1"
   id="svg2193"
   inkscape:version="1.2.2 (732a01da63, 2022-12-09)"
   sodipodi:docname="letter_y.svg"
   xmlns:inkscape="http://www.inkscape.org/namespaces/inkscape"
   xmlns:sodipodi="http://sodipodi.sourceforge.net/DTD/sodipodi-0.dtd"
   xmlns="http://www.w3.org/2000/svg"
   xmlns:svg="http://www.w3.org/2000/svg">
  <sodipodi:namedview
     id="namedview2195"
     pagecolor="#ffffff"
     bordercolor="#666666"
     borderopacity="1.0"
     inkscape:showpageshadow="2"
     inkscape:pageopacity="0.0"
     inkscape:pagecheckerboard="0"
     inkscape:deskcolor="#d1d1d1"
     inkscape:document-units="mm"
     showgrid="false"
     inkscape:zoom="0.86858165"
     inkscape:cx="-309.12465"
     inkscape:cy="287.82556"
     inkscape:window-width="1920"
     inkscape:window-height="1129"
     inkscape:window-x="1912"
     inkscape:window-y="-8"
     inkscape:window-maximized="1"
     inkscape:current-layer="layer1" />
  <defs
     id="defs2190" />
  <g
     inkscape:label="Layer 1"
     inkscape:groupmode="layer"
     id="layer1"
     transform="translate(-45.924954,-73.073314)">
    <path
       style="fill:#000000;stroke-width:0.718748"
       d="m 60.576904,101.71091 c -0.579385,-0.57938 -0.383771,-1.48905 0.723911,-3.366428 0.834802,-1.414887 1.693389,-3.887696 1.907971,-5.495136 0.579086,-4.337953 2.47952,-3.969716 2.76729,0.536201 0.179086,2.80398 0.451228,3.412076 1.437494,3.211934 0.815941,-0.165583 1.154629,-0.831256 1.02842,-2.02132 -0.103499,-0.975941 -0.390064,-4.142042 -0.636816,-7.035777 l -0.448637,-5.261339 -2.634843,2.572856 c -2.07531,2.026488 -2.826963,3.503027 -3.539558,6.953067 -0.704186,3.409332 -1.524397,5.040763 -3.700451,7.360346 -2.300677,2.452426 -3.016931,2.843946 -4.044904,2.211006 -1.746472,-1.07531 -3.982267,-5.631292 -4.107696,-8.370424 -0.106903,-2.334355 0.337947,-2.754953 7.925053,-7.493254 1.258976,-0.786252 1.246277,-0.95052 -0.305624,-3.953114 -1.918532,-3.711956 -2.077958,-5.261024 -0.478279,-4.647169 0.6253,0.239962 1.265602,0.436273 1.42289,0.436273 0.157294,0 0.967778,1.336429 1.801081,2.969842 l 1.515101,2.969842 4.099773,-4.056992 c 3.652661,-3.614546 4.242226,-3.952831 5.40598,-3.101869 1.18168,0.864062 1.225358,1.344595 0.458139,5.040266 -1.019887,4.912763 -0.02443,11.202383 2.285495,14.440064 2.170504,3.042303 1.043118,4.453255 -3.303348,4.134209 -2.428081,-0.178235 -4.036454,0.165363 -5.888023,1.257806 -2.989754,1.764 -2.692625,1.70691 -3.690419,0.70911 z m -2.766277,-8.9577 c 0.269714,-1.437697 0.347858,-2.756531 0.173652,-2.930731 -0.615776,-0.615776 -5.525945,2.181482 -5.525945,3.148055 0,0.539383 0.526881,1.999566 1.170844,3.244855 l 1.170841,2.264158 1.26011,-1.556168 c 0.693059,-0.855894 1.480785,-2.732469 1.750498,-4.170169 z"
       id="path1718" />
  </g>
</svg>
