<?xml version="1.0" encoding="UTF-8" standalone="no"?>
<!-- Created with Inkscape (http://www.inkscape.org/) -->

<svg
   width="32mm"
   height="32mm"
   viewBox="0 0 31.999999 32.000001"
   version="1.1"
   id="svg7409"
   inkscape:version="1.2.2 (732a01da63, 2022-12-09)"
   sodipodi:docname="letterbad_15_bad_C.svg"
   xmlns:inkscape="http://www.inkscape.org/namespaces/inkscape"
   xmlns:sodipodi="http://sodipodi.sourceforge.net/DTD/sodipodi-0.dtd"
   xmlns="http://www.w3.org/2000/svg"
   xmlns:svg="http://www.w3.org/2000/svg">
  <sodipodi:namedview
     id="namedview7411"
     pagecolor="#ffffff"
     bordercolor="#666666"
     borderopacity="1.0"
     inkscape:showpageshadow="2"
     inkscape:pageopacity="0.0"
     inkscape:pagecheckerboard="0"
     inkscape:deskcolor="#d1d1d1"
     inkscape:document-units="mm"
     showgrid="false"
     inkscape:zoom="0.84541947"
     inkscape:cx="-393.29589"
     inkscape:cy="253.12878"
     inkscape:window-width="1920"
     inkscape:window-height="1129"
     inkscape:window-x="1912"
     inkscape:window-y="-8"
     inkscape:window-maximized="1"
     inkscape:current-layer="layer1" />
  <defs
     id="defs7406" />
  <g
     inkscape:label="Layer 1"
     inkscape:groupmode="layer"
     id="layer1"
     transform="translate(-64.333995,-82.101404)">
    <path
       style="fill:#000000;stroke-width:0.481011"
       d="m 68.64623,110.45408 -1.563288,-0.70765 -0.057,-11.20674 c -0.06365,-12.51539 -0.06388,-12.511138 0.706334,-13.003172 0.807338,-0.515753 1.120196,-0.453917 1.961865,0.38775 0.640128,0.640128 0.755876,2.334261 0.755876,11.063273 v 10.307389 h 4.494784 c 2.472133,0 6.801238,-0.14108 9.620237,-0.3136 l 5.125451,-0.31361 0.01018,-4.13574 c 0.0056,-2.27467 0.308922,-6.809242 0.673986,-10.076827 1.194892,-10.695188 2.403824,-8.360963 3.076968,5.941065 0.441614,9.382772 0.283024,10.912782 -1.212853,11.700922 -0.475637,0.25061 -5.626811,0.59266 -11.447056,0.76012 -8.763029,0.25214 -10.851008,0.18282 -12.145546,-0.40318 z"
       id="path4954" />
  </g>
</svg>
