<?xml version="1.0" encoding="UTF-8" standalone="no"?>
<!-- Created with Inkscape (http://www.inkscape.org/) -->

<svg
   width="32mm"
   height="32mm"
   viewBox="0 0 32 32"
   version="1.1"
   id="svg5142"
   inkscape:version="1.2.2 (732a01da63, 2022-12-09)"
   sodipodi:docname="letterbad_01_comp_2.svg"
   xmlns:inkscape="http://www.inkscape.org/namespaces/inkscape"
   xmlns:sodipodi="http://sodipodi.sourceforge.net/DTD/sodipodi-0.dtd"
   xmlns="http://www.w3.org/2000/svg"
   xmlns:svg="http://www.w3.org/2000/svg">
  <sodipodi:namedview
     id="namedview5144"
     pagecolor="#ffffff"
     bordercolor="#666666"
     borderopacity="1.0"
     inkscape:showpageshadow="2"
     inkscape:pageopacity="0.0"
     inkscape:pagecheckerboard="0"
     inkscape:deskcolor="#d1d1d1"
     inkscape:document-units="mm"
     showgrid="false"
     inkscape:zoom="0.84541947"
     inkscape:cx="-188.66374"
     inkscape:cy="280.33421"
     inkscape:window-width="1920"
     inkscape:window-height="1129"
     inkscape:window-x="1912"
     inkscape:window-y="-8"
     inkscape:window-maximized="1"
     inkscape:current-layer="layer1" />
  <defs
     id="defs5139" />
  <g
     inkscape:label="Layer 1"
     inkscape:groupmode="layer"
     id="layer1"
     transform="translate(-52.745896,-71.064049)">
    <path
       style="fill:#000000;stroke-width:0.610572"
       d="m 64.714386,98.329508 c -0.69165,-1.055643 -0.795809,-1.995712 -0.410434,-3.704299 0.284038,-1.259307 0.349699,-2.289648 0.145914,-2.289648 -0.203791,0 -1.503934,1.112361 -2.889217,2.471916 -2.154723,2.114698 -2.626835,2.341624 -3.266982,1.570294 -0.598229,-0.720824 -0.538465,-1.307365 0.298036,-2.92498 0.575475,-1.112843 1.177062,-3.850684 1.336861,-6.084087 l 0.290544,-4.060736 -1.866884,-0.410035 c -2.50894,-0.551057 -3.580976,-1.851134 -2.550395,-3.092909 0.458263,-0.552172 1.247646,-0.778533 1.944106,-0.557487 1.047215,0.332375 1.130356,0.147138 0.777701,-1.732672 -0.302061,-1.610129 -0.167399,-2.192118 0.572948,-2.476217 1.642137,-0.630146 2.748692,0.224791 3.165311,2.445569 0.219437,1.169739 0.756413,2.263957 1.193263,2.431591 0.960458,0.368564 5.431427,-1.546488 8.536494,-3.656435 2.629405,-1.786727 3.683799,-1.568116 6.045029,1.25333 3.47015,4.146494 5.093013,13.228128 3.314449,18.547829 -0.976113,2.919557 -1.579276,3.42212 -2.728216,2.27318 -0.816184,-0.816184 -0.84733,-1.201624 -0.195252,-2.416125 1.314979,-2.449127 0.845985,-9.287137 -0.886416,-12.924118 -2.448292,-5.139906 -2.24931,-5.042861 -5.82659,-2.841738 -1.74763,1.075328 -4.328295,2.293276 -5.734811,2.706554 -2.336122,0.686423 -2.573691,0.943932 -2.746803,2.977338 -0.164445,1.931626 -0.01523,2.225924 1.127875,2.225924 0.8088,0 2.382892,-1.18511 4.077413,-3.069825 3.655519,-4.065818 4.815827,-4.666086 6.344795,-3.282389 1.76896,1.600887 3.201961,7.20204 2.771798,10.83409 -0.49049,4.141414 -1.158209,4.632354 -3.254403,2.392792 -2.049474,-2.18965 -4.257416,-3.422287 -5.36726,-2.9964 -0.442684,0.169868 -0.994611,1.688378 -1.226505,3.374453 -0.529252,3.848127 -1.68419,5.011882 -2.992378,3.01524 z m 9.234336,-11.201756 -0.843992,-2.894483 -1.330293,1.691193 c -0.731661,0.930158 -1.330294,1.87905 -1.330294,2.108652 0,0.446458 3.840004,2.437931 4.158649,2.156729 0.104468,-0.09219 -0.189876,-1.470125 -0.65407,-3.062091 z"
       id="path4926" />
  </g>
</svg>
