<?xml version="1.0" encoding="UTF-8" standalone="no"?>
<!-- Created with Inkscape (http://www.inkscape.org/) -->

<svg
   width="32mm"
   height="32mm"
   viewBox="0 0 32 32"
   version="1.1"
   id="svg3740"
   inkscape:version="1.2.2 (732a01da63, 2022-12-09)"
   sodipodi:docname="letter_h.svg"
   xmlns:inkscape="http://www.inkscape.org/namespaces/inkscape"
   xmlns:sodipodi="http://sodipodi.sourceforge.net/DTD/sodipodi-0.dtd"
   xmlns="http://www.w3.org/2000/svg"
   xmlns:svg="http://www.w3.org/2000/svg">
  <sodipodi:namedview
     id="namedview3742"
     pagecolor="#ffffff"
     bordercolor="#666666"
     borderopacity="1.0"
     inkscape:showpageshadow="2"
     inkscape:pageopacity="0.0"
     inkscape:pagecheckerboard="0"
     inkscape:deskcolor="#d1d1d1"
     inkscape:document-units="mm"
     showgrid="false"
     inkscape:zoom="0.84541947"
     inkscape:cx="-401.5758"
     inkscape:cy="302.80826"
     inkscape:window-width="1920"
     inkscape:window-height="1129"
     inkscape:window-x="1912"
     inkscape:window-y="-8"
     inkscape:window-maximized="1"
     inkscape:current-layer="layer1" />
  <defs
     id="defs3737" />
  <g
     inkscape:label="Layer 1"
     inkscape:groupmode="layer"
     id="layer1"
     transform="translate(-66.473235,-68.91653)">
    <path
       style="fill:#000000;stroke-width:0.575144"
       d="m 90.048193,95.359648 c -1.280702,-3.836582 -3.983184,-8.597086 -6.265736,-11.037326 -2.394827,-2.560263 -7.52546,-6.202057 -8.019842,-5.692582 -0.395084,0.40717 1.333329,9.495423 2.19997,11.567696 0.499315,1.193988 0.76132,2.55277 0.582224,3.019512 -0.491665,1.281254 -2.491799,1.018188 -3.672681,-0.483045 -0.576116,-0.732417 -2.101542,-1.806987 -3.389853,-2.38793 -1.438408,-0.648636 -2.342373,-1.442714 -2.342373,-2.057666 0,-1.400121 1.309983,-1.749886 3.09174,-0.825498 1.839188,0.954185 1.836145,1.003886 0.351847,-5.710132 -1.354871,-6.128602 -1.026674,-6.97924 2.47667,-6.419032 3.060025,0.489317 6.598649,2.345222 9.165488,4.807041 l 2.144973,2.057211 -0.346826,-3.714207 c -0.289286,-3.097811 -0.18151,-3.851368 0.649003,-4.540685 0.89116,-0.739606 1.123951,-0.647414 2.214772,0.877086 0.670414,0.936958 2.501451,3.072606 4.068961,4.745881 l 2.850038,3.042321 -1.165709,1.165718 -1.165731,1.16572 -1.918139,-1.61402 -1.918162,-1.61402 0.404127,1.431994 c 0.222268,0.787599 0.655219,2.726072 0.962113,4.30772 0.306872,1.581648 0.980916,3.832363 1.497862,5.001589 0.516924,1.169226 0.785559,2.528006 0.596941,3.01951 -0.46584,1.213997 -2.635551,1.133757 -3.051677,-0.112863 z m -9.865509,-6.585409 c -1.687567,-1.687583 0.56216,-3.937319 2.760696,-2.760695 1.865491,0.998371 1.047977,3.450869 -1.150277,3.450869 -0.506141,0 -1.230812,-0.310578 -1.610419,-0.690174 z"
       id="path3107" />
  </g>
</svg>
