<?xml version="1.0" encoding="UTF-8" standalone="no"?>
<!-- Created with Inkscape (http://www.inkscape.org/) -->

<svg
   width="32mm"
   height="32mm"
   viewBox="0 0 31.999999 32.000002"
   version="1.1"
   id="svg3438"
   inkscape:version="1.2.2 (732a01da63, 2022-12-09)"
   sodipodi:docname="letter_f.svg"
   xmlns:inkscape="http://www.inkscape.org/namespaces/inkscape"
   xmlns:sodipodi="http://sodipodi.sourceforge.net/DTD/sodipodi-0.dtd"
   xmlns="http://www.w3.org/2000/svg"
   xmlns:svg="http://www.w3.org/2000/svg">
  <sodipodi:namedview
     id="namedview3440"
     pagecolor="#ffffff"
     bordercolor="#666666"
     borderopacity="1.0"
     inkscape:showpageshadow="2"
     inkscape:pageopacity="0.0"
     inkscape:pagecheckerboard="0"
     inkscape:deskcolor="#d1d1d1"
     inkscape:document-units="mm"
     showgrid="false"
     inkscape:zoom="0.84541947"
     inkscape:cx="-407.49002"
     inkscape:cy="260.22585"
     inkscape:window-width="1920"
     inkscape:window-height="1129"
     inkscape:window-x="1912"
     inkscape:window-y="-8"
     inkscape:window-maximized="1"
     inkscape:current-layer="layer1" />
  <defs
     id="defs3435" />
  <g
     inkscape:label="Layer 1"
     inkscape:groupmode="layer"
     id="layer1"
     transform="translate(-68.421258,-80.042437)">
    <path
       style="fill:#000000;stroke-width:0.653785"
       d="m 82.001819,108.75971 c -3.206519,-0.96008 -4.981394,-3.13858 -4.981394,-6.11424 0,-2.21237 0.43586,-3.083993 2.691417,-5.382239 3.137504,-3.196883 2.922858,-4.496741 -0.643832,-3.898941 -4.506327,0.755291 -4.989623,0.728854 -4.989623,-0.272952 0,-0.539373 1.070878,-1.504295 2.379732,-2.144268 1.881866,-0.920154 2.933498,-1.039168 5.02665,-0.568867 2.980675,0.669714 3.606447,0.224244 6.980068,-4.968854 1.903478,-2.930073 2.53113,-3.293615 3.38628,-1.961358 1.651922,2.573564 3.482565,15.041715 2.314502,15.763616 -0.362513,0.224046 -2.315063,-0.589799 -4.338997,-1.808549 l -3.679878,-2.215907 -3.255588,3.27275 c -1.790573,1.800009 -3.255587,3.625859 -3.255587,4.057429 0,2.76122 5.162173,4.8176 8.989559,3.58103 3.55846,-1.14967 2.648214,-3.11053 -1.775704,-3.82524 -1.751843,-0.28302 -2.36097,-0.7268 -2.519376,-1.83549 -0.409547,-2.866416 5.612963,-1.562811 8.814933,1.90805 2.355736,2.55355 2.173453,3.88848 -0.760579,5.57003 -2.747758,1.57478 -6.832784,1.90685 -10.382583,0.844 z m 9.120448,-18.008336 c -0.490837,-1.955656 -1.10375,-2.001678 -2.248385,-0.168819 -0.788969,1.263343 -0.718682,1.538756 0.659968,2.585996 1.337999,1.016366 1.572383,1.038793 1.764321,0.168819 0.121746,-0.551782 0.04257,-1.715481 -0.175911,-2.585996 z"
       id="path3103" />
  </g>
</svg>
