<?xml version="1.0" encoding="UTF-8" standalone="no"?>
<!-- Created with Inkscape (http://www.inkscape.org/) -->

<svg
   width="32mm"
   height="32mm"
   viewBox="0 0 32 32"
   version="1.1"
   id="svg1156"
   inkscape:version="1.2.2 (732a01da63, 2022-12-09)"
   sodipodi:docname="letter_s.svg"
   xmlns:inkscape="http://www.inkscape.org/namespaces/inkscape"
   xmlns:sodipodi="http://sodipodi.sourceforge.net/DTD/sodipodi-0.dtd"
   xmlns="http://www.w3.org/2000/svg"
   xmlns:svg="http://www.w3.org/2000/svg">
  <sodipodi:namedview
     id="namedview1158"
     pagecolor="#ffffff"
     bordercolor="#666666"
     borderopacity="1.0"
     inkscape:showpageshadow="2"
     inkscape:pageopacity="0.0"
     inkscape:pagecheckerboard="0"
     inkscape:deskcolor="#d1d1d1"
     inkscape:document-units="mm"
     showgrid="false"
     inkscape:zoom="0.86858165"
     inkscape:cx="-390.86711"
     inkscape:cy="62.170321"
     inkscape:window-width="1920"
     inkscape:window-height="1129"
     inkscape:window-x="1912"
     inkscape:window-y="-8"
     inkscape:window-maximized="1"
     inkscape:current-layer="layer1" />
  <defs
     id="defs1153" />
  <g
     inkscape:label="Layer 1"
     inkscape:groupmode="layer"
     id="layer1"
     transform="translate(-67.559872,-132.36073)">
    <path
       style="fill:#000000;stroke-width:0.626598"
       d="m 74.150002,161.12593 c -0.716537,-0.45362 -0.531577,-1.01082 0.984741,-2.96675 3.755996,-4.84494 4.291741,-9.32176 0.788083,-6.5853 -2.53334,1.97863 -4.172807,2.23482 -4.65143,0.72689 -0.5442,-1.71466 0.613684,-3.0487 3.917486,-4.51348 1.464667,-0.64938 2.663048,-1.29356 2.663048,-1.43151 0,-0.13784 -0.704933,-1.57659 -1.566502,-3.197 -1.888347,-3.55152 -1.99255,-5.9393 -0.325042,-7.44838 1.687235,-1.52692 2.867689,-0.47585 3.340628,2.9745 0.568309,4.14638 2.766588,8.60695 4.241676,8.60695 1.048755,0 1.140549,-0.1968 0.580031,-1.24423 -1.091241,-2.03899 -1.750585,-6.6702 -1.112082,-7.81115 0.545147,-0.97411 0.698018,-0.97195 2.229493,0.0315 1.536165,1.00653 3.759666,1.1989 8.572872,0.74169 1.378083,-0.13097 1.921265,0.11604 2.088179,0.94971 0.454159,2.26803 -1.105498,3.09388 -5.334386,2.82461 -2.168368,-0.13806 -3.942471,-0.13759 -3.942471,9.5e-4 0,0.71725 3.441113,6.95309 5.026632,9.10909 3.035456,4.12755 1.284491,4.75424 -3.773449,1.3505 -4.35206,-2.92872 -5.115512,-2.83544 -6.409737,0.78325 -1.138772,3.18399 -4.481934,7.68205 -5.697912,7.66625 -0.405704,-0.005 -1.134628,-0.26093 -1.619858,-0.56811 z"
       id="path846" />
  </g>
</svg>
