<?xml version="1.0" encoding="UTF-8" standalone="no"?>
<!-- Created with Inkscape (http://www.inkscape.org/) -->

<svg
   width="32mm"
   height="32mm"
   viewBox="0 0 31.999999 32.000001"
   version="1.1"
   id="svg4982"
   inkscape:version="1.2.2 (732a01da63, 2022-12-09)"
   sodipodi:docname="letterbad_00_comp_1.svg"
   xmlns:inkscape="http://www.inkscape.org/namespaces/inkscape"
   xmlns:sodipodi="http://sodipodi.sourceforge.net/DTD/sodipodi-0.dtd"
   xmlns="http://www.w3.org/2000/svg"
   xmlns:svg="http://www.w3.org/2000/svg">
  <sodipodi:namedview
     id="namedview4984"
     pagecolor="#ffffff"
     bordercolor="#666666"
     borderopacity="1.0"
     inkscape:showpageshadow="2"
     inkscape:pageopacity="0.0"
     inkscape:pagecheckerboard="0"
     inkscape:deskcolor="#d1d1d1"
     inkscape:document-units="mm"
     showgrid="false"
     inkscape:zoom="0.84541947"
     inkscape:cx="-196.94365"
     inkscape:cy="234.20326"
     inkscape:window-width="1920"
     inkscape:window-height="1129"
     inkscape:window-x="1912"
     inkscape:window-y="-8"
     inkscape:window-maximized="1"
     inkscape:current-layer="layer1" />
  <defs
     id="defs4979" />
  <g
     inkscape:label="Layer 1"
     inkscape:groupmode="layer"
     id="layer1"
     transform="translate(-12.052664,-86.606182)">
    <path
       style="fill:#000000;stroke-width:0.55018"
       d="m 25.697884,112.30131 c -1.509925,-1.30955 -3.773076,-1.44061 -5.273921,-0.30543 -1.95868,1.48147 -2.837883,1.04805 -3.234132,-1.59433 -0.200997,-1.3404 -0.84807,-3.05062 -1.437921,-3.8005 -1.291626,-1.64203 -1.379257,-3.03228 -0.219192,-3.47744 1.13245,-0.43456 3.401818,1.74419 3.825374,3.67262 0.257237,1.17119 0.580793,1.45746 1.403991,1.24219 1.311867,-0.34306 1.315724,-0.22174 -0.08243,-2.59142 -1.552891,-2.63195 -1.983383,-7.678413 -0.880237,-10.318616 1.121076,-2.683111 4.163703,-3.737691 7.900375,-2.738282 1.803763,0.482432 3.054509,0.504091 4.628882,0.08016 2.29449,-0.617842 6.17525,0.04648 6.873749,1.176675 0.198814,0.321691 -0.551351,1.51972 -1.667039,2.662286 -1.599509,1.638046 -2.066429,2.585674 -2.207767,4.480727 -0.10027,1.34442 -0.534641,2.62751 -0.985855,2.91213 -1.151044,0.72606 -2.606713,0.0108 -2.606713,-1.28093 0,-1.19114 -1.658488,-4.99846 -2.165079,-4.970271 -0.170908,0.0096 -0.746474,0.616416 -1.279046,1.348681 -0.958816,1.31834 -0.944372,1.35602 1.473626,3.84396 1.343062,1.38191 2.726432,3.3746 3.074153,4.42821 0.8208,2.48705 2.470112,2.61542 2.947316,0.2294 0.380514,-1.90257 3.109354,-4.91591 4.451778,-4.91591 1.506732,0 1.534835,1.4489 0.05899,3.04137 -0.988903,1.06704 -1.409385,2.13326 -1.409385,3.57377 0,2.67965 -0.886643,3.32539 -4.919881,3.58315 -3.290931,0.21032 -3.332831,0.1947 -3.332831,-1.24277 0,-2.37272 -2.121345,-6.05115 -4.819957,-8.35786 l -2.522488,-2.15616 1.735936,-2.65938 c 1.657976,-2.539953 1.684915,-2.667547 0.599856,-2.841141 -2.630972,-0.420917 -4.469657,3.626569 -3.282106,7.224881 0.342726,1.03847 2.02079,3.43259 3.72903,5.32025 2.441617,2.69808 2.988196,3.61871 2.555597,4.30452 -0.832529,1.31983 -1.521577,1.34931 -2.93268,0.12547 z m 8.788077,-17.118547 c 0,-0.256052 -0.371371,-0.323038 -0.825272,-0.148866 -0.453898,0.174173 -0.825271,0.691885 -0.825271,1.15046 0,0.678753 0.153441,0.70643 0.825271,0.148866 0.453901,-0.376702 0.825272,-0.89441 0.825272,-1.15046 z"
       id="path4924" />
  </g>
</svg>
